<?xml version="1.0" encoding="utf-8"?>
<!-- Generator: Adobe Illustrator 16.0.0, SVG Export Plug-In . SVG Version: 6.00 Build 0)  -->
<!DOCTYPE svg PUBLIC "-//W3C//DTD SVG 1.1//EN" "http://www.w3.org/Graphics/SVG/1.1/DTD/svg11.dtd">
<svg version="1.1" id="Layer_1" xmlns="http://www.w3.org/2000/svg" xmlns:xlink="http://www.w3.org/1999/xlink" x="0px" y="0px"
	 width="140.043px" height="50px" viewBox="0 0 140.043 50" enable-background="new 0 0 140.043 50" xml:space="preserve">
<g>
	<path fill="#C30000" d="M31.018,35.468h1.538c0.195,1.105,0.374,2.492,0.53,4.163c0.156,1.674,0.195,3.298,0.117,4.875
		c-0.592,0.471-1.301,0.856-2.127,1.152c-0.825,0.296-1.702,0.541-2.628,0.736c-0.936,0.201-1.881,0.338-2.835,0.413
		c-0.966,0.078-1.881,0.12-2.746,0.12c-3.31,0-6.262-0.424-8.859-1.27c-2.598-0.848-4.794-2.138-6.585-3.87
		c-1.792-1.733-3.17-3.949-4.136-6.644c-0.963-2.696-1.448-5.896-1.448-9.599c0-3.857,0.533-7.136,1.596-9.833
		c1.063-2.698,2.501-4.903,4.314-6.616c1.809-1.712,3.918-2.962,6.317-3.75c2.402-0.787,4.922-1.182,7.562-1.182
		c2.599,0,4.783,0.167,6.555,0.502c1.772,0.335,3.329,0.837,4.669,1.507c0,0.629-0.022,1.369-0.062,2.214
		c-0.042,0.897-0.101,1.792-0.179,2.688c-0.078,0.944-0.176,1.87-0.293,2.775c-0.12,0.905-0.237,1.733-0.354,2.48h-1.535
		l-3.072-8.505C26.925,7.59,26.204,7.433,25.2,7.353c-0.993-0.078-1.987-0.117-2.983-0.117c-1.967,0-3.828,0.364-5.58,1.093
		c-1.753,0.728-3.29,1.85-4.607,3.366c-1.319,1.517-2.372,3.427-3.158,5.73c-0.79,2.303-1.184,5.01-1.184,8.12
		c0,2.796,0.354,5.327,1.063,7.59c0.709,2.266,1.732,4.194,3.072,5.788c1.339,1.596,2.972,2.818,4.899,3.664
		c1.931,0.845,4.119,1.27,6.558,1.27c1.301,0,2.383-0.098,3.248-0.296c0.867-0.195,1.439-0.452,1.713-0.767L31.018,35.468z
		 M60.964,38.481c0,0.865,0.02,1.613,0.059,2.243c0.039,0.631,0.078,1.3,0.117,2.009l4.077,0.591v1.239
		c-0.985,0.513-2.079,0.965-3.278,1.359c-1.2,0.393-2.353,0.689-3.455,0.884h-1.479c-0.391-0.904-0.628-1.897-0.709-2.98
		c-0.078-1.083-0.134-2.277-0.176-3.575h-0.293c-0.159,0.787-0.463,1.585-0.915,2.392c-0.455,0.809-1.044,1.526-1.774,2.157
		c-0.729,0.628-1.585,1.142-2.567,1.535c-0.988,0.394-2.109,0.592-3.368,0.592c-2.402,0-4.361-0.729-5.877-2.185
		c-1.515-1.457-2.273-3.368-2.273-5.731c0-1.808,0.362-3.298,1.094-4.459c0.726-1.161,1.8-2.076,3.217-2.746
		c1.418-0.669,3.17-1.152,5.258-1.445c2.087-0.296,4.509-0.524,7.263-0.681c0.159-1.693,0.207-3.22,0.151-4.577
		c-0.062-1.359-0.279-2.52-0.653-3.485c-0.374-0.964-0.924-1.712-1.652-2.245c-0.728-0.53-1.685-0.796-2.862-0.796
		c-0.553,0-1.172,0.029-1.864,0.088c-0.687,0.06-1.367,0.228-2.037,0.502l-2.773,7.087h-1.538c-0.393-1.18-0.739-2.401-1.035-3.661
		c-0.293-1.26-0.479-2.5-0.558-3.721c1.495-0.906,3.159-1.614,4.989-2.126s3.867-0.769,6.113-0.769c2.01,0,3.614,0.286,4.813,0.856
		c1.2,0.571,2.115,1.31,2.746,2.216c0.631,0.905,1.044,1.91,1.241,3.012c0.195,1.091,0.293,2.199,0.296,3.308
		c0,2.364-0.05,4.635-0.147,6.823C61.012,34.376,60.964,36.472,60.964,38.481L60.964,38.481z M49.565,43.264
		c0.982,0,1.851-0.195,2.598-0.589c0.748-0.394,1.379-0.868,1.89-1.42c0.513-0.55,0.926-1.11,1.241-1.68
		c0.315-0.572,0.533-1.055,0.65-1.448v-6.203c-2.285,0-4.154,0.117-5.611,0.357c-1.459,0.234-2.598,0.608-3.427,1.122
		c-0.826,0.511-1.397,1.149-1.71,1.92c-0.318,0.764-0.475,1.641-0.475,2.628c0,1.691,0.433,3.002,1.3,3.926
		C46.887,42.801,48.07,43.264,49.565,43.264L49.565,43.264z M84.649,1.802c0.354,0,0.767,0.02,1.241,0.059
		c0.472,0.041,0.963,0.089,1.474,0.148c0.514,0.06,1.004,0.138,1.479,0.237c0.472,0.098,0.888,0.207,1.239,0.324
		c-0.117,1.3-0.285,2.511-0.503,3.633c-0.215,1.122-0.479,2.136-0.798,3.042h-1.473l-2.601-5.08c-1.142,0-2.115,0.119-2.925,0.354
		c-0.807,0.237-1.476,0.689-2.009,1.359c-0.53,0.67-0.924,1.634-1.178,2.895c-0.257,1.26-0.385,2.913-0.385,4.961v2.952h6.791v2.954
		h-6.791v23.686c2.048,0.234,3.937,0.709,5.67,1.417v1.476H68.998v-1.476c1.219-0.708,2.52-1.183,3.896-1.417V19.639h-4.487v-1.536
		c1.378-0.865,2.874-1.515,4.487-1.949v-2.066c0-2.442,0.295-4.46,0.887-6.055s1.418-2.854,2.483-3.78
		c1.061-0.925,2.311-1.565,3.751-1.919C81.448,1.979,82.994,1.802,84.649,1.802L84.649,1.802z M104.849,1.802
		c0.354,0,0.77,0.02,1.238,0.059c0.475,0.041,0.966,0.089,1.479,0.148c0.514,0.06,1.005,0.138,1.476,0.237
		c0.472,0.098,0.885,0.207,1.242,0.324c-0.12,1.3-0.287,2.511-0.502,3.633c-0.218,1.122-0.486,2.136-0.799,3.042h-1.479l-2.595-5.08
		c-1.145,0-2.118,0.119-2.925,0.354c-0.809,0.237-1.479,0.689-2.009,1.359c-0.53,0.67-0.927,1.634-1.183,2.895
		c-0.255,1.26-0.383,2.913-0.383,4.961v2.952h6.792v2.954h-6.792v23.686c2.048,0.234,3.938,0.709,5.67,1.417v1.476H89.197v-1.476
		c1.22-0.708,2.52-1.183,3.898-1.417V19.639h-4.49v-1.536c1.379-0.865,2.874-1.515,4.49-1.949v-2.066
		c0-2.442,0.296-4.46,0.887-6.055c0.589-1.595,1.418-2.854,2.479-3.78c1.065-0.925,2.315-1.565,3.75-1.919
		C101.65,1.979,103.196,1.802,104.849,1.802z M132.256,42.083c-0.315,0.67-0.81,1.3-1.479,1.889
		c-0.669,0.592-1.434,1.105-2.302,1.538s-1.811,0.778-2.835,1.032c-1.024,0.257-2.073,0.385-3.131,0.385
		c-2.324,0-4.372-0.366-6.142-1.094c-1.774-0.729-3.248-1.772-4.431-3.128c-1.181-1.362-2.076-2.986-2.688-4.875
		s-0.915-4.015-0.915-6.379c0-5.042,1.163-8.879,3.485-11.517c2.321-2.638,5.611-3.958,9.863-3.958c1.376,0,2.749,0.189,4.077,0.561
		c1.337,0.375,2.528,0.995,3.571,1.861c1.044,0.866,1.893,2.019,2.539,3.456c0.65,1.437,0.977,3.219,0.977,5.345
		c0,0.67-0.03,1.348-0.089,2.037c-0.062,0.689-0.167,1.429-0.326,2.215h-18.428c0,1.655,0.206,3.201,0.622,4.635
		c0.413,1.44,1.032,2.69,1.858,3.753c0.826,1.063,1.87,1.9,3.131,2.508c1.261,0.611,2.734,0.916,4.431,0.916
		c1.379,0,2.774-0.195,4.191-0.589c1.418-0.394,2.483-0.907,3.192-1.538L132.256,42.083L132.256,42.083z M121.445,18.576
		c-2.243,0-3.956,0.757-5.14,2.274c-1.18,1.517-1.889,4.185-2.126,8.004h12.997c0.039-0.357,0.067-0.7,0.087-1.035
		c0.02-0.324,0.03-0.65,0.03-0.974c0-2.52-0.474-4.529-1.417-6.024C124.931,19.324,123.455,18.576,121.445,18.576L121.445,18.576z"
		/>
</g>
</svg>
