<?xml version="1.0" encoding="utf-8"?>
<!-- Generator: Adobe Illustrator 16.0.0, SVG Export Plug-In . SVG Version: 6.00 Build 0)  -->
<!DOCTYPE svg PUBLIC "-//W3C//DTD SVG 1.1//EN" "http://www.w3.org/Graphics/SVG/1.1/DTD/svg11.dtd">
<svg version="1.1" id="Layer_1" xmlns="http://www.w3.org/2000/svg" xmlns:xlink="http://www.w3.org/1999/xlink" x="0px" y="0px"
	 width="50px" height="50px" viewBox="0 0 50 50" enable-background="new 0 0 50 50" xml:space="preserve">
<path fill="none" d="M1.79,1.583h46.833v46.833H1.79V1.583z"/>
<path fill="#2196F3" d="M39.548,21.176c-1.326-6.733-7.238-11.787-14.342-11.787c-5.64,0-10.537,3.201-12.977,7.884
	c-5.874,0.624-10.44,5.601-10.44,11.63c0,6.46,5.249,11.708,11.708,11.708h25.368c5.385,0,9.757-4.372,9.757-9.757
	C48.623,25.703,44.623,21.526,39.548,21.176z M21.304,34.757l-6.83-6.83l2.752-2.751l4.078,4.059l10.107-10.089l2.752,2.752
	L21.304,34.757z"/>
</svg>
