<?xml version="1.0" encoding="utf-8"?>
<!-- Generator: Adobe Illustrator 16.0.0, SVG Export Plug-In . SVG Version: 6.00 Build 0)  -->
<!DOCTYPE svg PUBLIC "-//W3C//DTD SVG 1.1//EN" "http://www.w3.org/Graphics/SVG/1.1/DTD/svg11.dtd">
<svg version="1.1" id="Layer_1" xmlns="http://www.w3.org/2000/svg" xmlns:xlink="http://www.w3.org/1999/xlink" x="0px" y="0px"
	 width="215.075px" height="50px" viewBox="0 0 215.075 50" enable-background="new 0 0 215.075 50" xml:space="preserve">
<g>
	<path fill-rule="evenodd" clip-rule="evenodd" fill="#747474" d="M105.689,3.683c4.816,7.242,9.629,14.482,14.441,21.725
		c1.058,1.594,2.11,3.193,3.999,4.548c0-7.451-0.036-14.906,0.032-22.356c0.011-1.384-0.575-2.908,0.557-4.161
		c1.011,0.434,1.214,1.287,1.214,2.272c0.015,7.476,0,14.952,0.019,22.428c0.014-6.832-0.011-13.663,0.028-20.495
		c0.011-1.731-0.653-4,2.324-4.045c2.681-0.039,2.795,1.865,2.795,3.825c0.015,10.975,0.019,21.95-0.003,32.923
		c0,1.182,0.1,2.404-0.808,3.374c-1.392,1.235-3.152,0.941-4.791,1.146c-4.338-1.06-5.059-5.371-7.161-8.313
		c-4.484-6.282-8.479-12.917-13.528-19.181c0,7.842,0.054,15.686-0.05,23.527c-0.018,1.35,0.985,3.322-1.424,3.895
		c-0.215-0.505-0.107-0.93,0.313-1.278c0.218-8.554,0.015-17.108,0.064-22.135c0.015,4.366,0.004,12.258-0.007,20.152
		c-0.004,0.893,0.225,1.865-0.568,2.601c-4.565,1.051-5.348,0.559-5.344-3.772c0.014-11.71-0.154-23.422,0.085-35.127
		C99.913,1.871,103.076,4.159,105.689,3.683z"/>
	<path fill-rule="evenodd" clip-rule="evenodd" fill="#747474" d="M176.319,44.87c-2.054-0.145-1.639-1.725-1.643-2.96
		c-0.025-12.022,0.086-24.045-0.075-36.064c-0.05-3.603,2.089-3.187,4.385-3.299c2.538-0.127,3.97,0.401,3.813,3.431
		c-0.225,4.277-0.057,8.576,0.757,13.101c3.97-5.155,7.94-10.309,11.91-15.464c1.175,0.862,2.506-0.089,3.413,0.239
		c-0.882-0.253-2.188,0.425-3.335-0.32c2.475-1.999,5.238-0.368,8.309-0.307c-3.432,4.729-6.834,9.48-10.304,14.182
		c-3.799,5.15-3.773,5.093,0.003,10.423c3.589,5.068,7.052,10.223,10.572,15.341c-1.561,2.72-4.238,1.096-6.359,1.631
		c-1.724,0.168-2.109-1.34-2.845-2.34c-3.806-5.15-7.565-10.332-12.178-15.334c0,4.504,0.061,9.011-0.036,13.513
		c-0.028,1.341,0.725,2.926-0.8,3.999c-0.878-5.555-0.114-11.101-0.364-15.401c-0.207,2.672,0.061,6.631-0.046,10.577
		c-0.04,1.541,0.363,3.202-1.036,4.436c-1.231,0.591-2.42,0.627-3.549-0.237c-0.999-0.898-0.949-2.085-0.942-3.279
		c0.068-12.082-0.128-24.167,0.101-36.246c1.56-1.112,3.277-0.514,4.94-0.457c1.161,4.386,0.114,8.847,0.519,12.896
		c0-0.811,0-1.989,0-3.168c0-2.908,0.007-5.816-0.004-8.724c-2.228-1.733-3.898-1.653-5.58,0.276
		c0.007,11.312-0.011,22.621,0.018,33.928c0.004,1.428-0.3,2.897,0.364,4.275C176.633,43.969,176.633,44.42,176.319,44.87z"/>
	<path fill-rule="evenodd" clip-rule="evenodd" fill="#747474" d="M58.838,17.752c0.332-6.671,4.256-13.75,14.999-15.35
		c2.702-0.401,5.462-0.674,8.161,0.206c-1.842,0.909-3.745,0.375-5.619,0.464c1.867-0.284,3.788,0.579,5.623-0.469
		c1.899-0.318,3.663,0.327,5.412,0.868c1.781,0.551,3.906,1.207,2.76,3.734c-0.878,1.935-1.768,4.338-4.934,2.742
		c-2.274-1.144-4.838-1.13-7.362-1.083c-5.751,0.104-9.465,2.929-10.807,8.519c-1.028,4.281-1.018,8.647-0.021,12.915
		c1.807,7.762,8.937,10.614,18.118,7.473c1.379-0.473,2.731-1.805,4.359-0.305c2.406,2.21,2.089,5.061-1.01,6.217
		c-5.267,1.962-10.693,2.713-16.245,1.148c1.061-0.807,2.282-0.323,2.686-0.364c-0.396,0.12-1.639-0.536-2.686,0.37
		c-8.187-1.105-12.71-6.194-13.456-15.134C58.992,25.718,58.956,21.735,58.838,17.752z"/>
	<path fill-rule="evenodd" clip-rule="evenodd" fill="#747474" d="M169.207,4.273c0.907,3.772-0.41,5.114-4.405,4.952
		c-7.322-0.296-7.333-0.077-7.333,7.18c0,8.283,0.024,16.566-0.021,24.849c-0.008,1.208,0.66,2.688-0.936,3.509
		c-0.939-3.218-0.3-6.503-0.347-9.75c-0.114-7.983-0.039-15.968-0.035-24.74c-0.051,3.843-0.021,6.914-0.025,9.982
		c-0.007,6.578,0.011,13.156-0.011,19.734c-0.004,1.417,0.311,2.931-0.886,4.105c-1.163,0.773-2.353,0.768-3.56,0.104
		c-1.385-1.23-1.07-2.885-1.07-4.445c-0.011-9.542-0.008-19.083-0.061-28.624c0.132,9.216-0.036,18.433,0.046,27.649
		c0.011,1.565-0.325,3.174,0.343,4.698c0.307,0.441,0.317,0.889,0.028,1.344c-2.388-0.555-1.481-2.506-1.492-3.886
		c-0.078-9.209-0.171-18.426,0.032-27.633c0.068-3.199-0.707-4.447-4.113-4.268c-2.342,0.122-4.951,1.03-7.158-0.76
		c2.896-0.873,5.827-0.263,8.74-0.445c-2.902,0.337-5.837-0.578-8.722,0.468c-1.015-1.633-0.982-3.267-0.011-4.903
		c8.433,0.203,16.865,0.028,25.298,0.093c1.05,0.009,2.117-0.093,3.146,0.205c1.3,0.378,1.371,1.419,1.324,2.529
		c-0.05,1.169-0.71,1.607-1.795,1.596c-1.554-0.014-3.11,0.096-5.245-0.097c1.492,0.218,2.424,0.034,3.327,0.148
		c2.421,0.305,4.178-0.127,3.988-3.149C168.226,4.318,168.814,4.284,169.207,4.273z"/>
	<path fill-rule="evenodd" clip-rule="evenodd" fill="#747474" d="M103.326,43.959c0.004,0.279,0.008,0.557,0.008,0.835
		c-5.924,1.037-6.159,0.854-6.162-4.862c0-10.903-0.015-21.809,0.024-32.712c0.004-1.268-0.439-2.629,0.446-3.808
		c0.903-0.348,1.074,0.091,0.932,0.867c-0.003,11.678,0.157,23.362-0.1,35.035c-0.086,3.875,1.146,5.278,4.859,4.65L103.326,43.959z
		"/>
	<path fill-rule="evenodd" clip-rule="evenodd" fill="#747474" d="M169.207,4.273c-1.753,4.511-2.435,4.736-11.032,3.174
		c2.021,0,4.042,0.079,6.056-0.028c1.281-0.068,3.306,0.669,3.217-1.684c-0.071-1.998-1.889-1.43-3.078-1.437
		c-7.368-0.048-14.737,0-22.106-0.048c-1.378-0.009-2.938,0.528-4.052-0.856c0.718-1.109,1.859-0.788,2.863-0.791
		c8.275-0.02,16.555-0.039,24.83,0.02C167.18,2.631,169.011,1.94,169.207,4.273z"/>
	<path fill-rule="evenodd" clip-rule="evenodd" fill="#747474" d="M129.524,43.965c0.785-1.305,0.807-2.744,0.804-4.211
		c-0.019-10.564,0.018-21.13-0.043-31.694c-0.008-1.519,0.811-3.81-2.082-3.718c-2.577,0.082-1.813,2.174-1.824,3.581
		c-0.064,7.494-0.032,14.988-0.824,22.485c0-7.328,0-14.654,0.003-21.98c0-1.712,0.176-3.449-0.839-4.989V3.45
		c0.239-0.108,0.479-0.285,0.729-0.305c6.048-0.466,6.048-0.464,6.048,5.627c0,10.583,0.015,21.166-0.015,31.748
		c-0.003,1.524,0.497,3.246-1.182,4.34l-0.367,0.128l-0.371-0.112c-0.211-0.195-0.286-0.395-0.229-0.6
		C129.393,44.068,129.457,43.965,129.524,43.965z"/>
	<path fill-rule="evenodd" clip-rule="evenodd" fill="#747474" d="M130.299,44.859c0.914-1.567,0.808-3.292,0.804-5.009
		c-0.007-9.903,0.018-19.809-0.011-29.713c-0.021-7.994,0.692-6.412-6.373-6.687c5.645-2.276,7.177-1.349,7.177,4.349
		c0.003,11.089,0.035,22.18-0.043,33.269C131.842,42.414,132.791,44.422,130.299,44.859z"/>
	<path fill-rule="evenodd" clip-rule="evenodd" fill="#747474" d="M154.923,43.956c0.985-1.555,0.796-3.295,0.796-5.007
		c0-9.627,0-19.256,0-28.884c0.265-0.002,0.528-0.004,0.793-0.007c0,11.569,0,23.137,0,34.706c-0.246,0.04-0.493,0.081-0.739,0.122
		C155.283,44.763,155.012,44.443,154.923,43.956z"/>
	<path fill-rule="evenodd" clip-rule="evenodd" fill="#747474" d="M58.838,17.752c1.325,3.986,1.382,7.967-0.021,11.948
		C57.942,25.716,57.924,21.733,58.838,17.752z"/>
	<path fill-rule="evenodd" clip-rule="evenodd" fill="#747474" d="M180.324,43.956c1.589-3.808,0.493-7.799,0.775-11.696
		c0.117-1.63,0.021-3.274,0.807-4.89c0,5.759,0,11.516,0,17.272c-0.246,0.073-0.492,0.146-0.742,0.222
		C180.682,44.75,180.414,44.436,180.324,43.956z"/>
	<path fill-rule="evenodd" clip-rule="evenodd" fill="#747474" d="M197.765,44.806c1.8-1.791,4.506-0.048,6.359-1.631
		c0.692,0.81,2.142,1.892-0.34,1.987C201.789,45.238,199.725,45.627,197.765,44.806z"/>
	<path fill-rule="evenodd" clip-rule="evenodd" fill="#747474" d="M98.574,4.28c-0.311-0.289-0.621-0.578-0.932-0.867
		c2.728-1.203,5.42-1.455,8.047,0.27C103.427,5.171,100.924,3.798,98.574,4.28z"/>
	<path fill-rule="evenodd" clip-rule="evenodd" fill="#747474" d="M154.923,43.956c0.282,0.309,0.567,0.618,0.85,0.926
		c-1.617,0.497-3.234,0.596-4.838-0.061c0.011-0.286,0.019-0.571,0.029-0.857c0.257-0.335,0.521-0.337,0.785-0.007
		C152.81,43.956,153.866,43.956,154.923,43.956z"/>
	<path fill-rule="evenodd" clip-rule="evenodd" fill="#747474" d="M180.324,43.956c0.279,0.303,0.561,0.605,0.84,0.909
		c-1.614,0.559-3.228,0.553-4.845,0.005c0.014-0.304,0.024-0.605,0.035-0.909c0.265-0.332,0.528-0.334,0.796-0.005
		C178.208,43.956,179.265,43.956,180.324,43.956z"/>
	<path fill-rule="evenodd" clip-rule="evenodd" fill="#747474" d="M129.524,43.965c0.011,0.304,0.021,0.607,0.036,0.911
		c-1.357,0.528-2.71,0.532-4.063-0.009C126.579,43.399,128.157,44.16,129.524,43.965z"/>
	<path fill-rule="evenodd" clip-rule="evenodd" fill="#747474" d="M103.334,43.965c0-8.913,0-17.826,0-26.741
		c0.253-0.003,0.51-0.007,0.768-0.012c0,7.026,0.061,14.052-0.043,21.077c-0.029,1.888,0.753,3.948-0.732,5.671L103.334,43.965z"/>
	<path fill-rule="evenodd" clip-rule="evenodd" fill="#747474" d="M177.15,43.956c-0.264,0.002-0.531,0.003-0.796,0.005
		c-1.296-1.169-0.761-2.717-0.768-4.102c-0.039-11.864-0.021-23.726-0.021-35.589c0.268-0.286,0.532-0.27,0.793,0.007
		c0,11.567,0,23.135-0.004,34.701C176.354,40.68,176.176,42.41,177.15,43.956z"/>
	<path fill-rule="evenodd" clip-rule="evenodd" fill="#747474" d="M181.885,4.261c0,4.706,0,9.411,0,14.117
		c-0.257,0.003-0.511,0.009-0.768,0.014c0-4.706,0-9.411,0-14.115C181.367,3.997,181.624,3.979,181.885,4.261z"/>
	<path fill-rule="evenodd" clip-rule="evenodd" fill="#747474" d="M195.544,3.534c1.807,0,3.61,0,5.416,0
		c-1.838,0.161-3.737,1.967-5.494,0.081L195.544,3.534z"/>
	<path fill-rule="evenodd" clip-rule="evenodd" fill="#747474" d="M181.885,4.261c-0.257,0.009-0.511,0.013-0.768,0.016
		c-1.585,0-3.174,0-4.759,0c-0.265-0.001-0.528-0.003-0.793-0.007C177.669,3.066,179.774,3.06,181.885,4.261z"/>
	<path fill-rule="evenodd" clip-rule="evenodd" fill="#747474" d="M82.002,2.603c-1.968,1.729-4.202,0.496-6.345,0.005
		c2.114,0,4.228,0,6.341,0L82.002,2.603z"/>
	<path fill-rule="evenodd" clip-rule="evenodd" fill="#747474" d="M72.272,44.834c1.168-1.289,2.561-0.925,3.992-0.284
		c-1.332,0.093-2.66,0.186-3.992,0.279V44.834z"/>
	<path fill-rule="evenodd" clip-rule="evenodd" fill="#747474" d="M151.749,43.958c-0.261,0.001-0.525,0.005-0.785,0.007
		c-0.25-0.444-0.718-0.889-0.718-1.335c-0.039-10.911-0.032-21.823,0.71-32.737c0,9.689,0,19.379,0,29.068
		C150.956,40.67,150.771,42.405,151.749,43.958z"/>
	<path fill-rule="evenodd" clip-rule="evenodd" fill="#747474" d="M138.222,8.297c1.078-2.231,2.928-0.52,4.384-0.77
		c1.885-0.326,3.87-0.08,5.823,0.747c-3.409,0-6.819,0-10.226,0L138.222,8.297z"/>
</g>
<rect x="3.058" y="3.424" fill-rule="evenodd" clip-rule="evenodd" fill="#F34E24" width="20.689" height="20.983"/>
<rect x="3.058" y="26.005" fill-rule="evenodd" clip-rule="evenodd" fill="#01A3EE" width="20.689" height="20.982"/>
<rect x="25.336" y="3.424" fill-rule="evenodd" clip-rule="evenodd" fill="#81B800" width="20.692" height="20.983"/>
<rect x="25.336" y="26.005" fill-rule="evenodd" clip-rule="evenodd" fill="#FEB802" width="20.692" height="20.982"/>
</svg>
