<?xml version="1.0" encoding="utf-8"?>
<!-- Generator: Adobe Illustrator 16.0.0, SVG Export Plug-In . SVG Version: 6.00 Build 0)  -->
<!DOCTYPE svg PUBLIC "-//W3C//DTD SVG 1.1//EN" "http://www.w3.org/Graphics/SVG/1.1/DTD/svg11.dtd">
<svg version="1.1" id="Layer_1" xmlns="http://www.w3.org/2000/svg" xmlns:xlink="http://www.w3.org/1999/xlink" x="0px" y="0px"
	 width="136.999px" height="49.667px" viewBox="0 0 136.999 49.667" enable-background="new 0 0 136.999 49.667"
	 xml:space="preserve">
<g>
	<path d="M43.996,11.154c-3.77-3.708-9.022-5.562-13.905-5.562c-12.668,0-19.156,9.27-19.096,19.28
		c0,10.197,6.49,18.972,19.096,18.972c4.635,0,9.456-1.606,13.164-5.005V26.728H28.176v-2.905h18.23v16.191
		c-4.511,4.511-9.888,6.983-16.315,6.983c-14.707,0-22.309-10.259-22.309-22.063c-0.062-13.533,9.146-22.37,22.309-22.37
		c5.687,0,11.433,2.162,15.82,6.488L43.996,11.154z"/>
	<path d="M58.762,31.485V46.44h-3.338V3.183c6.304,0,12.669,0,18.972,0c18.787,0,18.787,28.303,0,28.303H58.762z M58.762,6.272
		v22.185h15.634c14.399,0,14.399-22.185,0-22.185H58.762z"/>
	<path d="M128.959,3.183v26.881c0,22.618-33.124,22.681-33.124,0V3.183h3.275v26.881c0,18.602,26.574,18.54,26.574,0V3.183H128.959z
		"/>
</g>
</svg>
