<?xml version="1.0" encoding="utf-8"?>
<!-- Generator: Adobe Illustrator 16.0.0, SVG Export Plug-In . SVG Version: 6.00 Build 0)  -->
<!DOCTYPE svg PUBLIC "-//W3C//DTD SVG 1.1//EN" "http://www.w3.org/Graphics/SVG/1.1/DTD/svg11.dtd">
<svg version="1.1" id="Layer_1" xmlns="http://www.w3.org/2000/svg" xmlns:xlink="http://www.w3.org/1999/xlink" x="0px" y="0px"
	 width="150.923px" height="50px" viewBox="0 0 150.923 50" enable-background="new 0 0 150.923 50" xml:space="preserve">
<g>
	<path fill-rule="evenodd" clip-rule="evenodd" fill="#CF0000" d="M25.525,47.328c-7.247,0-14.491-0.007-21.737,0.016
		c-0.591,0.002-0.71-0.158-0.705-0.721C3.097,32.37,3.097,18.119,3.08,3.869c-0.002-0.569,0.122-0.72,0.711-0.72
		c14.515,0.02,29.026,0.02,43.541,0c0.611,0,0.737,0.17,0.737,0.754c-0.015,14.229-0.017,28.458,0,42.688
		c0,0.589-0.131,0.754-0.739,0.753C40.062,47.32,32.793,47.328,25.525,47.328z"/>
	<path fill-rule="evenodd" clip-rule="evenodd" fill="#2F2F2F" d="M59.752,24.436c1.932-1.923,3.742-3.723,5.55-5.529
		c1.979-1.981,3.962-3.963,5.926-5.958c0.258-0.261,0.514-0.347,0.866-0.339c0.852,0.019,1.706,0.006,2.56,0.006
		c0.297,0,0.569-0.052,0.732,0.352c0.161,0.394-0.049,0.567-0.26,0.779c-2.867,2.855-5.729,5.717-8.612,8.555
		c-0.348,0.341-0.331,0.542-0.07,0.919c3.158,4.541,6.298,9.096,9.448,13.641c0.181,0.26,0.246,0.476,0.091,0.776
		c-0.148,0.29-0.365,0.325-0.647,0.319c-0.635-0.011-1.277-0.072-1.9,0.014c-0.915,0.125-1.401-0.287-1.884-1.017
		c-2.494-3.777-5.049-7.512-7.563-11.275c-0.271-0.406-0.416-0.417-0.745-0.083c-1.043,1.061-2.106,2.1-3.18,3.13
		c-0.266,0.255-0.319,0.534-0.319,0.878c0.013,2.45,0.008,4.902,0.005,7.352c0,0.792-0.206,0.994-1.01,0.997
		c-0.547,0.002-1.095-0.001-1.643,0.001c-0.555,0.002-0.852-0.245-0.852-0.827c0.003-7.9,0.003-15.801,0-23.701
		c0-0.583,0.28-0.827,0.85-0.813c0.591,0.015,1.183-0.001,1.773,0.003c0.682,0.007,0.881,0.211,0.881,0.912
		c0.003,3.392,0.003,6.784,0.003,10.176C59.752,23.895,59.752,24.086,59.752,24.436z"/>
	<path fill-rule="evenodd" clip-rule="evenodd" fill="#2F2F2F" d="M138.564,19.392c1.754-0.02,3.429,0.365,5.059,0.975
		c0.701,0.263,0.827,0.58,0.53,1.252c-0.238,0.54-0.499,1.072-0.7,1.624c-0.144,0.392-0.321,0.406-0.68,0.26
		c-1.632-0.667-3.309-1.128-5.1-0.999c-0.525,0.038-1.049,0.086-1.54,0.294c-0.582,0.249-1.083,0.579-1.146,1.297
		c-0.065,0.711,0.258,1.214,0.825,1.596c0.953,0.642,2.039,0.994,3.095,1.41c1.484,0.584,3.008,1.096,4.249,2.148
		c2.365,2.006,2.078,6.015-0.528,7.713c-1.109,0.726-2.339,1.084-3.638,1.202c-2.331,0.213-4.631,0.101-6.811-0.889
		c-0.38-0.171-0.584-0.383-0.546-0.839c0.047-0.542,0.008-1.093,0.013-1.639c0.007-0.718,0.401-0.977,1.049-0.683
		c1.72,0.779,3.509,1.206,5.406,1.112c0.726-0.037,1.434-0.158,2.098-0.467c1.378-0.638,1.577-2.279,0.377-3.197
		c-0.842-0.645-1.824-1.031-2.798-1.419c-1.178-0.469-2.377-0.888-3.487-1.508c-1.56-0.871-2.618-2.081-2.687-3.98
		c-0.067-1.896,0.73-3.294,2.342-4.237c0.876-0.512,1.839-0.811,2.849-0.921C137.382,19.434,137.976,19.426,138.564,19.392z"/>
	<path fill-rule="evenodd" clip-rule="evenodd" fill="#2F2F2F" d="M102.337,22.199c0.971-1.197,1.977-2.085,3.31-2.515
		c1.333-0.43,2.679-0.285,4.027-0.089c0.309,0.045,0.318,0.225,0.279,0.47c-0.111,0.713-0.204,1.428-0.326,2.14
		c-0.077,0.464-0.382,0.663-0.844,0.591c-0.713-0.111-1.424-0.253-2.151-0.125c-1.935,0.341-3.631,2.162-3.908,4.189
		c-0.08,0.586-0.119,1.173-0.119,1.765c0.008,2.78,0.005,5.558,0.003,8.337c0,0.799-0.194,0.988-1.013,0.99
		c-0.547,0.002-1.095,0-1.643,0.001c-0.552,0.001-0.858-0.243-0.858-0.825c0-5.515,0-11.028,0.002-16.543
		c0-0.528,0.277-0.809,0.804-0.82c0.591-0.011,1.183,0.017,1.771-0.009c0.35-0.016,0.459,0.143,0.483,0.453
		C102.201,20.819,102.267,21.425,102.337,22.199z"/>
	<path fill-rule="evenodd" clip-rule="evenodd" fill="#FEFEFE" d="M19.673,24.335c1.431-1.443,2.856-2.887,4.287-4.328
		c2.358-2.375,4.721-4.745,7.071-7.125c0.205-0.206,0.416-0.281,0.696-0.277c0.92,0.012,1.84,0.012,2.76,0.001
		c0.301-0.005,0.522,0.021,0.666,0.362c0.148,0.348-0.007,0.515-0.219,0.727c-2.886,2.868-5.76,5.747-8.655,8.604
		c-0.338,0.333-0.331,0.534-0.07,0.91c3.153,4.545,6.29,9.105,9.432,13.659c0.153,0.223,0.299,0.401,0.131,0.702
		c-0.16,0.283-0.338,0.404-0.669,0.396c-0.854-0.022-1.711-0.034-2.563,0.003c-0.438,0.02-0.662-0.176-0.888-0.515
		c-2.628-3.925-5.271-7.841-7.908-11.759c-0.096-0.143-0.207-0.275-0.346-0.457c-1.251,1.224-2.479,2.434-3.718,3.633
		c-0.225,0.218-0.183,0.477-0.183,0.733c-0.003,2.452,0,4.903-0.003,7.355c0,0.816-0.183,0.994-1.005,0.998
		c-0.548,0.001-1.095-0.004-1.643,0.001c-0.56,0.005-0.849-0.252-0.849-0.829c0.004-7.902,0.004-15.805,0-23.708
		c0-0.586,0.279-0.83,0.847-0.817c0.589,0.013,1.183,0,1.773,0.003c0.698,0.006,0.874,0.184,0.876,0.909
		c0.003,3.372,0,6.742,0,10.113c0,0.212,0,0.422,0,0.634C19.554,24.289,19.614,24.312,19.673,24.335z"/>
	<path fill-rule="evenodd" clip-rule="evenodd" fill="#2F2F2F" d="M94.293,26.707c-0.178-2.213-0.939-4.155-2.641-5.677
		c-2.706-2.424-8.784-2.477-11.31,1.855c-1.969,3.376-2.076,6.967-0.703,10.556c0.946,2.476,2.873,3.972,5.465,4.544
		c2.341,0.517,4.662,0.338,6.93-0.396c1.558-0.504,1.548-0.533,1.548-2.142c0-0.175,0-0.35,0-0.525
		c-0.007-0.815-0.355-1.06-1.104-0.768c-1.652,0.64-3.36,0.978-5.132,0.927c-1.063-0.029-2.078-0.26-2.954-0.926
		c-1.31-0.992-1.737-2.403-1.949-3.939c-0.059-0.44,0.09-0.511,0.481-0.507c1.752,0.018,3.505,0.008,5.254,0.008
		c1.73,0,3.46,0.001,5.188-0.001c0.774-0.001,0.957-0.188,0.957-0.975C94.319,28.062,94.347,27.382,94.293,26.707z M90.604,26.468
		c-0.054,0.317-0.27,0.231-0.44,0.231c-1.202,0.007-2.401,0.005-3.604,0.005c-1.158,0-2.314-0.032-3.47,0.013
		c-0.558,0.022-0.579-0.163-0.479-0.627c0.594-2.693,2.647-4.063,5.275-3.492C89.45,22.938,90.861,24.962,90.604,26.468z"/>
	<path fill-rule="evenodd" clip-rule="evenodd" fill="#2F2F2F" d="M126.901,24.327c-0.297-2.515-1.669-4.083-4.137-4.617
		c-2.688-0.582-5.263-0.134-7.742,0.962c-1.027,0.454-1.016,0.482-0.572,1.552c0.083,0.202,0.17,0.402,0.253,0.604
		c0.419,1.011,0.55,1.055,1.545,0.634c1.628-0.688,3.293-1.195,5.096-0.883c0.993,0.172,1.667,0.741,1.961,1.71
		c0.2,0.653,0.215,1.334,0.231,2.015c0.005,0.303-0.093,0.428-0.409,0.433c-0.698,0.009-1.398,0.047-2.097,0.073
		c-1.933,0.074-3.83,0.288-5.636,1.065c-2.137,0.921-3.346,2.902-3.188,5.304c0.168,2.531,1.511,4.274,3.9,4.811
		c2.842,0.639,5.489,0.304,7.685-2.056c0.056,0.213,0.075,0.316,0.109,0.414c0.183,0.511,0.002,1.271,0.436,1.517
		c0.436,0.246,1.104,0.085,1.674,0.086c0.781,0.001,0.985-0.215,0.985-1.024c0.003-2.998,0.008-5.996-0.002-8.993
		C126.989,26.731,127.043,25.529,126.901,24.327z M123.468,30.688c-0.02,3.493-2.647,4.859-5.55,4.492
		c-1.254-0.158-1.954-0.906-2.066-2.019c-0.148-1.449,0.458-2.534,1.701-2.994c0.45-0.167,0.917-0.292,1.385-0.395
		c0.9-0.196,1.819-0.214,2.734-0.301c0.2,0,0.397,0.006,0.592-0.001C123.49,29.428,123.476,29.427,123.468,30.688z"/>
</g>
</svg>
