<?xml version="1.0" encoding="utf-8"?>
<!-- Generator: Adobe Illustrator 16.0.0, SVG Export Plug-In . SVG Version: 6.00 Build 0)  -->
<!DOCTYPE svg PUBLIC "-//W3C//DTD SVG 1.1//EN" "http://www.w3.org/Graphics/SVG/1.1/DTD/svg11.dtd">
<svg version="1.1" id="Layer_1" xmlns="http://www.w3.org/2000/svg" xmlns:xlink="http://www.w3.org/1999/xlink" x="0px" y="0px"
	 width="181.218px" height="50px" viewBox="0 0 181.218 50" enable-background="new 0 0 181.218 50" xml:space="preserve">
<g>
	<path fill-rule="evenodd" clip-rule="evenodd" fill="#343433" d="M39.577,8.373c-0.239,0.546,0.131,0.937,0.356,1.355
		c2.278,4.224,4.565,8.442,6.834,12.668c0.287,0.536,0.559,0.922,1.265,1.034c0.903,0.145,1.432,0.824,1.445,1.78
		c0.014,1.022-0.526,1.737-1.501,1.886c-0.715,0.11-0.968,0.526-1.265,1.042c-2.948,5.139-5.897,10.276-8.872,15.4
		c-0.345,0.592-0.441,1.078-0.205,1.764c0.302,0.873-0.073,1.664-0.905,2.108c-0.885,0.474-1.813,0.356-2.35-0.483
		c-0.457-0.719-1.058-0.78-1.735-0.847c-5.851-0.573-11.7-1.135-17.548-1.727c-0.575-0.059-1.021,0.13-1.529,0.336
		c-1.365,0.557-2.68-0.289-2.632-1.757c0.028-0.83-0.19-1.529-0.484-2.254c-1.823-4.489-3.642-8.98-5.457-13.473
		c-0.276-0.681-0.499-1.302-1.38-1.534c-0.834-0.22-1.204-1.006-1.119-1.861c0.092-0.912,0.606-1.617,1.565-1.672
		c0.752-0.042,1.115-0.43,1.492-0.972c3.629-5.232,7.272-10.455,10.916-15.675c0.34-0.489,0.577-0.922,0.45-1.602
		c-0.165-0.906,0.322-1.644,1.21-1.948c0.928-0.319,1.829-0.109,2.266,0.81c0.336,0.705,0.832,0.834,1.485,0.962
		c4.469,0.87,8.931,1.767,13.392,2.67c0.536,0.108,0.989,0.157,1.545-0.086C38.48,5.571,39.672,6.503,39.577,8.373z"/>
	<path fill-rule="evenodd" clip-rule="evenodd" fill="#343433" d="M141.905,35.512c0-0.597,0-1.06,0-1.523
		c0-7.548,0.011-15.095-0.017-22.643c-0.002-1.064,0.122-1.841,1.443-1.849c1.315-0.007,1.472,0.755,1.469,1.829
		c-0.022,9.312-0.014,18.624-0.014,27.936c0,0.686,0.106,1.436-0.77,1.705c-0.772,0.239-1.469,0.041-1.993-0.577
		c-0.441-0.522-0.857-1.07-1.241-1.637c-5.321-7.873-10.639-15.751-16.028-23.741c-0.361,0.554-0.219,1.085-0.221,1.569
		c-0.01,7.548-0.007,15.096-0.007,22.643c0.002,0.74,0.092,1.505-0.879,1.776c-1.216,0.34-1.99-0.217-2.009-1.506
		c-0.019-1.225-0.004-2.45-0.004-3.675c0-8.186-0.003-16.37,0.004-24.556c0-0.612-0.188-1.343,0.618-1.632
		c0.743-0.266,1.446-0.14,2.064,0.38c0.609,0.513,1.039,1.167,1.476,1.819c4.934,7.37,9.864,14.74,14.806,22.102
		C140.944,34.44,141.181,35.047,141.905,35.512z"/>
	<path fill-rule="evenodd" clip-rule="evenodd" fill="#343433" d="M92.38,15.271c0,4.456,0,8.913,0,13.371
		c0,3.578-0.021,7.156,0.012,10.732c0.009,1.07-0.313,1.69-1.485,1.684c-1.199-0.007-1.416-0.685-1.413-1.728
		c0.025-9.41,0.012-18.82,0.019-28.23c0.002-1.501,1-2.062,2.319-1.32c0.797,0.449,1.262,1.215,1.751,1.947
		c5.021,7.488,10.034,14.979,15.052,22.468c0.27,0.399,0.55,0.79,0.862,1.239c0.467-0.475,0.258-0.983,0.26-1.423
		c0.014-7.597,0.012-15.193,0.007-22.791c0-0.757-0.041-1.491,0.97-1.684c1.232-0.237,1.867,0.222,1.867,1.494
		c0.009,9.508,0.004,19.017,0.007,28.524c0,0.549,0.025,1.122-0.607,1.361c-0.632,0.238-1.253,0.203-1.807-0.238
		c-0.623-0.498-1.044-1.163-1.48-1.813c-5.043-7.471-10.086-14.944-15.13-22.415c-0.292-0.43-0.602-0.847-0.905-1.269
		C92.578,15.211,92.479,15.241,92.38,15.271z"/>
	<path fill-rule="evenodd" clip-rule="evenodd" fill="#343433" d="M172.815,41.083c-0.886,0.022-1.26-0.643-1.676-1.247
		c-2.614-3.794-5.262-7.563-7.812-11.399c-0.724-1.091-1.011-0.885-1.634,0.049c-2.503,3.75-5.073,7.454-7.62,11.173
		c-0.221,0.323-0.428,0.664-0.699,0.942c-0.652,0.675-1.406,0.631-2.131,0.147c-0.857-0.575-0.352-1.172,0.044-1.744
		c2.926-4.233,5.822-8.484,8.802-12.679c0.588-0.831,0.54-1.358-0.021-2.159c-2.924-4.173-5.791-8.387-8.657-12.598
		c-0.358-0.525-1.073-1.133-0.234-1.758c0.731-0.546,1.581-0.534,2.271,0.154c0.379,0.377,0.689,0.829,0.99,1.272
		c2.453,3.605,4.929,7.197,7.321,10.841c0.653,0.997,0.938,0.881,1.54-0.023c2.443-3.669,4.949-7.299,7.448-10.934
		c0.328-0.479,0.68-0.981,1.133-1.333c0.699-0.542,1.531-0.481,2.149,0.114c0.644,0.621-0.005,1.172-0.343,1.667
		c-2.491,3.638-5.002,7.263-7.507,10.894c-1.929,2.797-1.927,2.796,0.043,5.627c2.547,3.661,5.094,7.321,7.634,10.984
		c0.276,0.396,0.653,0.8,0.343,1.329C173.9,40.918,173.378,41.064,172.815,41.083z"/>
	<path fill-rule="evenodd" clip-rule="evenodd" fill="#FEFEFE" d="M37.037,10.414c-0.951,7.153-1.896,14.142-2.804,21.133
		c-0.157,1.205-0.57,1.166-1.361,0.475c-5.021-4.382-10.057-8.743-15.074-13.124c-1.042-0.909-0.979-1.345,0.25-1.883
		c5.737-2.514,11.479-5.016,17.229-7.51C36.511,8.969,37.125,9.364,37.037,10.414z"/>
	<path fill-rule="evenodd" clip-rule="evenodd" fill="#F4F5F6" d="M13.278,40.206c0.772-6.612,1.54-13.224,2.311-19.836
		c0.119-1.015,0.602-1.192,1.354-0.54c5.107,4.425,10.206,8.859,15.3,13.299c0.735,0.641,0.579,1.159-0.299,1.521
		c-5.606,2.313-11.211,4.64-16.824,6.938C14.083,42.011,13.223,41.329,13.278,40.206z"/>
	<path fill-rule="evenodd" clip-rule="evenodd" fill="#DEDFDF" d="M38.343,10.056c0.579,0.165,0.621,0.613,0.796,0.931
		c2.151,3.95,4.287,7.908,6.422,11.868c0.771,1.425,0.43,2.776-0.929,3.71c-2.972,2.042-5.948,4.08-9.303,6.38
		C36.368,25.063,37.353,17.576,38.343,10.056z"/>
	<path fill-rule="evenodd" clip-rule="evenodd" fill="#D1D1D1" d="M16.187,16.452c0.846-3.642,1.535-6.981,2.438-10.26
		c0.253-0.915,1.448-1.463,2.347-1.302c4.851,0.87,9.676,1.89,14.962,2.949C29.176,10.787,22.836,13.551,16.187,16.452z"/>
	<path fill-rule="evenodd" clip-rule="evenodd" fill="#D1D1D1" d="M15.4,42.873c0.632-0.271,1.199-0.524,1.771-0.761
		c4.927-2.037,9.853-4.076,14.783-6.102c1.538-0.633,2.048-0.339,2.246,1.261c0.238,1.942,0.445,3.887,0.693,5.828
		c0.149,1.185-0.393,1.851-1.528,1.746c-5.894-0.542-11.78-1.151-17.67-1.742C15.628,43.096,15.57,43.009,15.4,42.873z"/>
	<path fill-rule="evenodd" clip-rule="evenodd" fill="#D8D8D8" d="M11.513,39.831c-1.844-4.525-3.691-9.047-5.525-13.575
		c-0.387-0.953,0.17-2.594,1.06-3.127c1.968-1.183,3.946-2.348,5.933-3.502c0.354-0.206,0.715-0.637,1.182-0.265
		c0.367,0.292,0.197,0.719,0.151,1.099c-0.754,6.456-1.51,12.911-2.267,19.365C11.871,40.014,11.692,40.014,11.513,39.831z"/>
	<path fill-rule="evenodd" clip-rule="evenodd" fill="#B2B2B2" d="M45.085,28.375c-2.846,4.951-5.712,9.94-8.581,14.93
		c-0.101-0.024-0.202-0.048-0.304-0.073c-0.271-2.207-0.756-4.416-0.724-6.617c0.016-1.102,0.604-2.511,1.547-3.239
		c2.354-1.82,4.883-3.419,7.345-5.104C44.524,28.163,44.696,28.056,45.085,28.375z"/>
	<path fill-rule="evenodd" clip-rule="evenodd" fill="#B2B2B2" d="M7.285,20.953c3.063-4.404,6.126-8.81,9.188-13.215
		c0.282-0.055,0.423,0.038,0.352,0.346c-0.453,1.953-0.895,3.909-1.356,5.859c-0.232,0.976-0.876,1.727-1.354,2.554
		c-1.52,2.619-4.322,3.204-6.455,4.801C7.348,21.387,7.263,21.23,7.285,20.953z"/>
	<path fill-rule="evenodd" clip-rule="evenodd" fill="#767676" d="M16.825,8.084c-0.117-0.116-0.234-0.231-0.352-0.346
		c0.094-0.256,0.311-0.687,0.457-0.578C17.28,7.416,17.075,7.793,16.825,8.084z"/>
	<path fill-rule="evenodd" clip-rule="evenodd" fill="#7F7F7E" d="M7.285,20.953c0.127,0.115,0.251,0.229,0.375,0.345
		c-0.211,0.247-0.478,0.617-0.776,0.306C6.709,21.424,7.049,21.121,7.285,20.953z"/>
	<path fill-rule="evenodd" clip-rule="evenodd" fill="#A4A4A3" d="M11.513,39.831c0.177-0.002,0.356-0.004,0.533-0.006
		c0.017,0.25,0.195,0.637-0.179,0.663C11.575,40.508,11.497,40.131,11.513,39.831z"/>
	<path fill-rule="evenodd" clip-rule="evenodd" fill="#343433" d="M80.802,17.568c-0.161-3.627-2.193-5.998-5.579-7.167
		c-3.425-1.184-6.941-1.218-10.438-0.397c-4.71,1.105-6.928,4-6.939,8.846c-0.007,2.206-0.002,4.411,0,6.617
		c0,2.353-0.032,4.706,0.007,7.058c0.064,3.89,1.934,6.648,5.494,7.861c3.968,1.355,8.013,1.361,11.979-0.002
		c3.321-1.143,5.312-3.521,5.473-7.09C81.038,28.055,81.034,22.807,80.802,17.568z M72.934,38.815
		c-2.513,0.635-5.051,0.631-7.549-0.112c-2.975-0.882-4.57-2.947-4.639-6.043c-0.053-2.448-0.012-4.897-0.012-7.347
		c-0.002-2.303-0.027-4.605,0.002-6.907c0.046-3.377,1.725-5.55,4.977-6.391c2.414-0.624,4.859-0.619,7.273,0.001
		c3.257,0.839,4.981,2.996,5.016,6.366c0.051,4.653,0.044,9.308,0.005,13.962C77.977,35.802,76.273,37.97,72.934,38.815z"/>
</g>
</svg>
