<?xml version="1.0" encoding="utf-8"?>
<!-- Generator: Adobe Illustrator 16.0.0, SVG Export Plug-In . SVG Version: 6.00 Build 0)  -->
<!DOCTYPE svg PUBLIC "-//W3C//DTD SVG 1.1//EN" "http://www.w3.org/Graphics/SVG/1.1/DTD/svg11.dtd">
<svg version="1.1" id="Layer_1" xmlns="http://www.w3.org/2000/svg" xmlns:xlink="http://www.w3.org/1999/xlink" x="0px" y="0px"
	 width="210.5px" height="50px" viewBox="0 0 210.5 50" enable-background="new 0 0 210.5 50" xml:space="preserve">
<path fill="#F05732" d="M104.454,16.184c-1.252-0.968-1.738,3.771-4.254,3.771c-2.896,0-3.865-12.57-6.087-12.57
	c-0.679,0-0.776-0.387-7.641,20.594c-2.806,8.703,4.255,15.281,11.412,15.281c4.442,0,11.891-2.904,11.891-12.186
	C109.775,24.209,106.393,17.633,104.454,16.184z M97.787,38.519c-3.579,0-6.479-2.998-6.479-6.77c0-3.771,2.9-6.768,6.479-6.768
	c3.575,0,6.479,2.997,6.479,6.768C104.266,35.422,101.362,38.519,97.787,38.519z"/>
<path fill="#9E529F" d="M101.652,4.387c-0.482,0-1.738,2.418-1.738,3.48c0,1.451,0.965,1.936,1.738,1.936s1.738-0.484,1.738-1.936
	C103.297,6.805,102.041,4.387,101.652,4.387z"/>
<path fill="#333333" d="M5.157,42.58V18.795h11.117c5.126,0,8.025,3.48,8.025,7.637s-2.899,7.641-8.025,7.641h-6.09v8.508H5.157z
	 M19.081,26.432c0-2.029-1.547-3.19-3.575-3.19h-5.321v6.381h5.321C17.534,29.622,19.081,28.366,19.081,26.432z M39.192,42.58
	v-9.768l-9.092-14.018h5.804l5.898,9.477l5.897-9.477h5.706l-9.089,14.018v9.768H39.192z M66.361,42.58V23.241h-6.962v-4.446h18.95
	v4.446h-6.962V42.58H66.361z M132.207,42.58l-4.643-8.41h-3.673v8.41h-5.027V18.795h11.023c4.929,0,8.025,3.287,8.025,7.637
	c0,4.156-2.708,6.479-5.224,7.061l5.416,9.088H132.207z M132.689,26.432c0-1.933-1.546-3.19-3.578-3.19h-5.317v6.381h5.317
	C131.144,29.622,132.689,28.461,132.689,26.432z M145.938,30.686c0-7.346,5.51-12.279,12.664-12.279
	c5.219,0,8.221,2.807,9.959,5.803l-4.348,2.125c-0.969-1.932-3.097-3.479-5.611-3.479c-4.353,0-7.445,3.29-7.445,7.831
	c0,4.45,3.093,7.833,7.445,7.833c2.417,0,4.544-1.546,5.611-3.481l4.348,2.127c-1.644,2.998-4.74,5.801-9.959,5.801
	C151.448,42.965,145.938,37.938,145.938,30.686z M193.219,42.58V32.525h-11.22V42.58h-5.023V18.795h5.023v9.379h11.22v-9.379h5.125
	V42.58H193.219z"/>
</svg>
