<?xml version="1.0" encoding="utf-8"?>
<!-- Generator: Adobe Illustrator 16.0.0, SVG Export Plug-In . SVG Version: 6.00 Build 0)  -->
<!DOCTYPE svg PUBLIC "-//W3C//DTD SVG 1.1//EN" "http://www.w3.org/Graphics/SVG/1.1/DTD/svg11.dtd">
<svg version="1.1" id="Layer_1" xmlns="http://www.w3.org/2000/svg" xmlns:xlink="http://www.w3.org/1999/xlink" x="0px" y="0px"
	 width="173.75px" height="50px" viewBox="0 0 173.75 50" enable-background="new 0 0 173.75 50" xml:space="preserve">
<path fill="#11557C" d="M14.14,8.542v7.484h9.839v3.365H14.14v14.312c0,1.945,0.37,3.301,1.107,4.068
	c0.74,0.773,2.024,1.156,3.861,1.156h4.871v3.458h-5.293c-3.249,0-5.542-0.652-6.872-1.956c-1.336-1.3-2.004-3.543-2.004-6.727
	V19.391H2.774v-3.365H9.81V8.542H14.14z M53.423,26.051v16.333h-4.356V26.051c0-2.368-0.416-4.111-1.248-5.224
	c-0.829-1.114-2.132-1.67-3.907-1.67c-2.024,0-3.583,0.721-4.684,2.165c-1.081,1.428-1.625,3.483-1.625,6.164v14.899h-4.33V5.764
	h4.33v14.214c0.773-1.505,1.814-2.643,3.131-3.411c1.32-0.784,2.882-1.177,4.684-1.177c2.686,0,4.684,0.888,6,2.66
	C52.755,19.807,53.423,22.475,53.423,26.051z M103.197,29.136h-1.438c-2.521,0-4.428,0.445-5.719,1.34
	c-1.271,0.881-1.906,2.198-1.906,3.953c0,1.585,0.478,2.816,1.438,3.694c0.956,0.878,2.282,1.32,3.979,1.32
	c2.384,0,4.258-0.822,5.62-2.473c1.369-1.664,2.057-3.953,2.073-6.872v-0.963H103.197z M111.598,27.348v15.037h-4.353v-3.907
	c-0.927,1.569-2.093,2.731-3.508,3.485c-1.396,0.737-3.099,1.107-5.106,1.107c-2.682,0-4.824-0.753-6.422-2.26
	c-1.605-1.523-2.404-3.557-2.404-6.098c0-2.932,0.983-5.162,2.941-6.682c1.978-1.523,4.874-2.283,8.686-2.283h5.813v-0.683
	c-0.017-2.103-0.547-3.624-1.602-4.565c-1.048-0.958-2.729-1.437-5.037-1.437c-1.475,0-2.965,0.211-4.468,0.636
	c-1.507,0.424-2.974,1.043-4.402,1.858v-4.33c1.598-0.613,3.128-1.066,4.588-1.364c1.474-0.314,2.902-0.472,4.281-0.472
	c2.181,0,4.041,0.323,5.581,0.966c1.552,0.642,2.807,1.608,3.763,2.894c0.6,0.784,1.019,1.757,1.274,2.918
	C111.474,23.313,111.598,25.041,111.598,27.348z M140.407,26.051v16.333h-4.356V26.051c0-2.368-0.413-4.111-1.244-5.224
	c-0.832-1.114-2.136-1.67-3.911-1.67c-2.024,0-3.583,0.721-4.684,2.165c-1.081,1.428-1.621,3.483-1.621,6.164v14.899h-4.333V16.025
	h4.333v3.953c0.77-1.505,1.812-2.643,3.128-3.411c1.319-0.784,2.882-1.177,4.684-1.177c2.686,0,4.684,0.888,6,2.66
	C139.738,19.807,140.407,22.475,140.407,26.051L140.407,26.051z M159.161,19.062c-2.194,0-3.858,0.855-4.988,2.566
	c-1.13,1.709-1.693,4.243-1.693,7.6c0,3.341,0.563,5.876,1.693,7.602c1.13,1.713,2.794,2.564,4.988,2.564
	c2.214,0,3.884-0.852,5.015-2.564c1.13-1.726,1.693-4.261,1.693-7.602c0-3.357-0.563-5.891-1.693-7.6
	C163.045,19.917,161.375,19.062,159.161,19.062z M159.161,15.39c3.655,0,6.452,1.186,8.378,3.554
	c1.945,2.37,2.922,5.797,2.922,10.284c0,4.503-0.967,7.939-2.896,10.311c-1.933,2.352-4.729,3.531-8.404,3.531
	c-3.655,0-6.446-1.179-8.378-3.531c-1.93-2.371-2.896-5.807-2.896-10.311c0-4.487,0.966-7.915,2.896-10.284
	C152.715,16.576,155.506,15.39,159.161,15.39z"/>
<path fill="#11557C" d="M70.199,43.783c-3.488-0.675-5.529-1.605-7.491-4.421c-1.425-2.041-1.654-3.714-1.68-6.59
	c-0.013-1.375,0.026-1.67,0.305-2.352l0.324-0.776l0.38,0.829c0.439,0.957,0.872,1.631,1.153,1.808
	c0.17,0.104,0.216-0.118,0.305-1.526c0.059-0.911,0.147-1.913,0.193-2.234c0.085-0.573,0.088-0.576,0.848-0.865
	c1.444-0.55,4.133-0.619,8.978-0.236c2.217,0.18,6.996,0.275,7.5-0.164c0.527-0.455,0.589-0.663,0.426-1.911
	c-0.197-1.476,0.013-1.81-0.613-3.041c-1.621-3.192-4.307-4.553-7.857-4.561c-3.203-0.008-5.768,1.163-7.32,3.77
	c-1.366,2.292-1.975,4.751-2.335,9.424l-0.098,1.311l-0.305-0.439c-1.458-2.09-2.358-5.738-1.732-8.516
	c0.485-2.15,1.474-4.019,3.082-5.815c1.385-1.551,3.665-2.441,6.403-2.962c1.762-0.337,2.968-0.337,4.729,0
	c2.735,0.521,4.716,1.518,6.105,3.069c1.589,1.778,2.594,3.664,3.063,5.745c0.318,1.405,0.367,3.534,0.102,4.209
	c-0.236,0.589-1.952,2.509-2.011,2.24c-0.023-0.105,0.026-0.295,0.111-0.413c0.236-0.334,0.023-0.475-0.337-0.216
	c-0.278,0.196-0.328,0.203-0.488,0.052c-0.347-0.314-0.472,0.013-0.157,0.4c0.367,0.449,0.374,0.599,0.026,0.599
	c-0.147,0-0.301,0.042-0.344,0.095c-0.328,0.403-5.424,0.498-9.469,0.177c-2.994-0.242-5.372-0.19-5.928,0.125
	c-0.458,0.259-1.064,1.172-1.271,1.913c-0.193,0.701-0.079,2.836,0.197,3.694c0.281,0.862,1.271,2.119,2.306,2.922
	c2.889,2.247,7.664,2.273,10.572,0.059c1.461-1.113,2.64-2.902,2.293-3.481c-0.085-0.147-0.157-0.429-0.157-0.632
	c0-0.367,0.419-1.124,0.694-1.251c0.386-0.183,0.822-0.907,0.822-1.369c0-0.53,0.187-0.884,0.472-0.884
	c0.442,0,0.39-1.369-0.075-1.955c-0.354-0.449-0.321-0.541,0.088-0.249c0.266,0.187,0.344,0.207,0.344,0.082
	c0-0.088,0.105-0.226,0.236-0.305c0.207-0.128,0.216-0.121,0.102,0.065c-0.069,0.115-0.111,0.678-0.088,1.248
	c0.036,0.94,0.072,1.055,0.36,1.228c0.262,0.154,0.334,0.324,0.393,0.904c0.052,0.501,0.203,0.92,0.518,1.425
	c0.367,0.583,0.436,0.806,0.38,1.186c-0.04,0.269-0.193,0.577-0.351,0.705c-0.344,0.285-1.746,2.129-1.89,2.486
	c-0.255,0.645-1.117,1.998-1.677,2.64c-0.872,0.996-1.808,1.592-3.426,2.182C74.483,44.091,72.603,44.251,70.199,43.783z"/>
</svg>
