<?xml version="1.0" encoding="utf-8"?>
<!-- Generator: Adobe Illustrator 16.0.0, SVG Export Plug-In . SVG Version: 6.00 Build 0)  -->
<!DOCTYPE svg PUBLIC "-//W3C//DTD SVG 1.1//EN" "http://www.w3.org/Graphics/SVG/1.1/DTD/svg11.dtd">
<svg version="1.1" id="Layer_1" xmlns="http://www.w3.org/2000/svg" xmlns:xlink="http://www.w3.org/1999/xlink" x="0px" y="0px"
	 width="331.167px" height="64px" viewBox="0 0 331.167 64" enable-background="new 0 0 331.167 64" xml:space="preserve">
<g>
	<g>
		<path fill="#FFFFFF" d="M322.523,7.277v50.167H59.398V7.277H322.523 M324.523,5.277H57.398v54.167h267.125V5.277L324.523,5.277z"
			/>
	</g>
</g>
<rect x="5.698" y="5.277" fill="#FFFFFF" width="54.167" height="54.167"/>
<g>
	<path fill="#FFFFFF" d="M76.364,14.74l11.709,29.224l11.71-29.224h6.125v35.817h-4.723V36.609l0.443-15.055L89.869,50.557h-3.616
		L74.52,21.627l0.467,14.98v13.947h-4.723V14.74H76.364z"/>
	<path fill="#FFFFFF" d="M139.33,33.805c0,3.51-0.59,6.571-1.771,9.188c-1.181,2.615-2.854,4.611-5.019,5.988
		c-2.165,1.379-4.69,2.066-7.576,2.066c-2.821,0-5.323-0.691-7.503-2.078c-2.182-1.387-3.875-3.361-5.08-5.929
		s-1.825-5.539-1.857-8.918V31.54c0-3.443,0.599-6.486,1.796-9.127c1.197-2.64,2.89-4.661,5.08-6.063
		c2.189-1.402,4.694-2.104,7.515-2.104c2.87,0,5.399,0.693,7.589,2.078c2.189,1.387,3.875,3.396,5.055,6.027
		c1.181,2.632,1.771,5.695,1.771,9.188V33.805L139.33,33.805z M134.631,31.493c0-4.248-0.853-7.507-2.558-9.779
		c-1.706-2.271-4.092-3.406-7.159-3.406c-2.985,0-5.334,1.135-7.047,3.406c-1.714,2.272-2.596,5.424-2.645,9.459v2.632
		c0,4.117,0.865,7.352,2.595,9.705s4.112,3.529,7.147,3.529c3.05,0,5.411-1.111,7.084-3.333c1.672-2.224,2.533-5.407,2.583-9.558
		V31.493L134.631,31.493z"/>
	<path fill="#FFFFFF" d="M143.946,50.557V14.74h10.11c3.116,0,5.871,0.688,8.266,2.066c2.393,1.378,4.242,3.338,5.547,5.879
		c1.303,2.543,1.963,5.462,1.979,8.758v2.288c0,3.379-0.651,6.34-1.956,8.881c-1.304,2.541-3.166,4.494-5.584,5.854
		c-2.419,1.361-5.236,2.06-8.449,2.091H143.946L143.946,50.557z M148.669,18.602v28.093h4.968c3.641,0,6.475-1.133,8.5-3.398
		c2.023-2.266,3.037-5.49,3.037-9.676v-2.093c0-4.071-0.956-7.234-2.866-9.491c-1.909-2.257-4.62-3.401-8.129-3.435H148.669z"/>
	<path fill="#FFFFFF" d="M194.759,34.001h-15.521v12.692h18.031v3.861h-22.755V14.74h22.509v3.862h-17.785v11.537h15.521V34.001z"/>
	<path fill="#FFFFFF" d="M205.428,46.695h16.973v3.861H200.68V14.74h4.749L205.428,46.695L205.428,46.695z"/>
	<path fill="#FFFFFF" d="M252.847,50.557H248.1V34.001h-18.058v16.556h-4.723V14.74h4.723v15.399H248.1V14.74h4.747V50.557z"/>
	<path fill="#FFFFFF" d="M283.98,14.74v24.354c-0.018,3.379-1.079,6.143-3.186,8.291c-2.107,2.148-4.965,3.354-8.572,3.614
		l-1.256,0.05c-3.92,0-7.043-1.058-9.372-3.173c-2.328-2.114-3.509-5.026-3.542-8.733V14.74h4.675v24.255
		c0,2.591,0.713,4.604,2.142,6.039c1.426,1.437,3.459,2.151,6.1,2.151c2.672,0,4.719-0.713,6.137-2.14
		c1.419-1.427,2.128-3.437,2.128-6.026V14.74H283.98z"/>
	<path fill="#FFFFFF" d="M288.966,50.557V14.74h11.716c3.887,0,6.81,0.804,8.771,2.41c1.959,1.608,2.938,3.986,2.938,7.135
		c0,1.672-0.478,3.152-1.427,4.44c-0.95,1.287-2.248,2.284-3.887,2.988c1.935,0.541,3.463,1.57,4.588,3.087
		c1.123,1.519,1.685,3.326,1.685,5.425c0,3.215-1.041,5.74-3.123,7.576c-2.084,1.838-5.026,2.756-8.832,2.756H288.966z
		 M293.689,30.016h7.139c2.068,0,3.719-0.518,4.957-1.553c1.238-1.035,1.857-2.44,1.857-4.217c0-1.972-0.574-3.405-1.721-4.301
		c-1.148-0.896-2.896-1.344-5.24-1.344h-6.992V30.016z M293.689,33.805v12.891h7.803c2.199,0,3.934-0.57,5.203-1.711
		c1.271-1.139,1.908-2.709,1.908-4.711c0-4.313-2.346-6.469-7.037-6.469H293.689z"/>
</g>
<g>
	<g>
		<g>
			<path fill="#4285F4" d="M28.79,41.79c-0.317-0.165-0.575-0.009-0.575,0.347v9.307c0,0.354,0.258,0.777,0.575,0.941l3.246,1.674
				c0.316,0.164,0.834,0.164,1.15,0l3.249-1.674c0.315-0.164,0.575-0.587,0.575-0.941v-9.307c0-0.355-0.259-0.512-0.575-0.348
				l-3.249,1.684c-0.315,0.166-0.833,0.166-1.15,0L28.79,41.79z"/>
		</g>
		<g>
			<path fill="#4285F4" d="M46.261,10.93c-0.321-0.153-0.846-0.155-1.168-0.001l-11.899,5.682c-0.32,0.154-0.845,0.154-1.167-0.002
				L20.188,10.93c-0.321-0.155-0.847-0.155-1.168,0l-7.687,3.687c-0.321,0.152-0.584,0.57-0.584,0.926v26.908
				c0,0.355,0.259,0.781,0.576,0.945l7.647,3.943c0.317,0.165,0.575,0.008,0.575-0.35V21.761c0-0.357,0.264-0.525,0.586-0.373
				l7.496,3.514c0.321,0.15,0.586,0.564,0.586,0.92v7.299c0,0.355,0.258,0.781,0.574,0.947l3.249,1.703
				c0.314,0.164,0.832,0.164,1.147,0l3.25-1.703c0.315-0.166,0.573-0.592,0.573-0.947v-7.299c0-0.355,0.263-0.77,0.585-0.92
				l7.497-3.514c0.324-0.152,0.585,0.016,0.585,0.373V46.99c0,0.355,0.259,0.513,0.576,0.35l7.643-3.953
				c0.315-0.164,0.574-0.59,0.574-0.945V15.539c0-0.355-0.263-0.773-0.582-0.928L46.261,10.93z"/>
		</g>
	</g>
</g>
</svg>
