<?xml version="1.0" encoding="utf-8"?>
<!-- Generator: Adobe Illustrator 16.0.0, SVG Export Plug-In . SVG Version: 6.00 Build 0)  -->
<!DOCTYPE svg PUBLIC "-//W3C//DTD SVG 1.1//EN" "http://www.w3.org/Graphics/SVG/1.1/DTD/svg11.dtd">
<svg version="1.1" id="Layer_1" xmlns="http://www.w3.org/2000/svg" xmlns:xlink="http://www.w3.org/1999/xlink" x="0px" y="0px"
	 width="171.281px" height="50px" viewBox="0 0 171.281 50" enable-background="new 0 0 171.281 50" xml:space="preserve">
<path fill="#2F3847" d="M2.35,45.892c0.342-1.027,1.369-1.659,2.442-1.503h33.474c0.393-0.011,0.788,0.031,1.168,0.129
	c0.837,0.255,1.347,1.1,1.188,1.959c-0.1,0.829-0.769,1.468-1.605,1.529H4.772c-1.042,0.145-2.047-0.441-2.431-1.423L2.35,45.892z
	 M164.931,46.15h-16.344v-2.488c0-0.228,0.267-0.464,0.464-0.654c3.272-3.325,6.582-6.604,9.812-9.963
	c1.016-1.016,1.887-2.157,2.599-3.405c1.537-2.865,0.479-5.992-2.256-7.141c-2.689-1.195-5.832,0.017-7.026,2.705
	c-0.084,0.188-0.156,0.38-0.217,0.579c-0.084,0.241-0.148,0.481-0.252,0.806l-2.445-0.445c0.061-0.297,0.099-0.548,0.167-0.78
	c1.096-3.437,4.397-5.684,8.004-5.444c2.436,0.158,4.634,0.928,6.064,2.996c1.696,2.608,1.605,5.99-0.221,8.504
	c-0.829,1.172-1.766,2.268-2.785,3.275c-2.784,2.865-5.676,5.676-8.532,8.495c-0.198,0.164-0.415,0.308-0.644,0.426l0.16,0.308
	h13.429L164.931,46.15z M26.986,1.628c0.707,0.388,1.08,1.187,0.928,1.977c-0.045,0.529,0,1.057,0,1.706h2.107
	c0.7-0.074,1.348,0.382,1.507,1.067c0.152,0.727-0.319,1.438-1.042,1.588c-0.106,0.021-0.221,0.031-0.327,0.025h-2.237v2.115
	c0.092,0.742-0.434,1.419-1.176,1.51c-0.057,0.007-0.117,0.011-0.179,0.011c-0.775,0-1.278-0.567-1.309-1.483V8.197
	c0,0,0-0.084-0.099-0.196h-2.107c-1.168-0.074-1.856-1.177-1.195-2.031c0.343-0.35,0.792-0.571,1.278-0.63
	c0.716-0.055,1.431-0.055,2.146,0V3.485c-0.142-0.782,0.285-1.554,1.02-1.856H26.986z M113.709,18.324l-0.407,4.788
	c-0.51-0.066-0.928-0.158-1.365-0.177c-1.256-0.236-2.469,0.593-2.705,1.853c-0.012,0.07-0.022,0.143-0.026,0.215
	c-0.137,1.054-0.213,2.111-0.225,3.173h6.224v-0.807c0.034-1.225,0.126-2.448,0.285-3.663c0.427-3.074,3.014-5.389,6.114-5.473
	c1.388-0.171,2.796-0.065,4.146,0.314l-0.392,4.565c-0.499-0.066-0.929-0.158-1.354-0.177c-1.34-0.206-2.595,0.717-2.8,2.058
	c-0.016,0.108-0.023,0.217-0.027,0.325c-0.083,0.732-0.057,1.484-0.11,2.218c0,0.51,0.138,0.694,0.666,0.675h3.313v4.343h-2.663
	c-1.309,0-1.309,0-1.309,1.271v12.333h-5.851V32.599c-0.282,0-0.472-0.053-0.678-0.053h-4.869c-0.556,0-0.708,0.175-0.708,0.711
	V46.15h-5.851V32.569h-3.283v-4.348h3.219v-0.862c0.03-1.204,0.125-2.404,0.277-3.599c0.373-3.061,2.914-5.396,5.992-5.51
	C110.787,18.196,112.248,18.221,113.709,18.324z M36.337,23.324c1.856-0.057,3.648,0.706,4.896,2.087
	c1.769,1.814,2.218,4.541,1.122,6.827c-0.955,2.279-3.203,3.748-5.676,3.709h-2.366c-0.419-0.031-0.818,0.175-1.039,0.529
	c-2.853,3.834-7.41,6.022-12.185,5.843c-7.457-0.125-13.639-5.802-14.396-13.216c-0.252-2.534-0.13-5.092-0.13-7.643
	c0.012-0.826,0.62-1.52,1.435-1.644c0.273-0.046,0.552-0.065,0.825-0.055h25.257c0.313-0.008,0.624,0.021,0.929,0.083
	c0.757,0.139,1.319,0.788,1.343,1.558C36.363,22.035,36.337,22.638,36.337,23.324z M10.133,23.324v4.08
	c0.004,1.813,0.438,3.597,1.264,5.214c2.214,4.265,6.866,6.681,11.629,6.038c4.592-0.601,8.328-3.987,9.386-8.499
	c0.267-1.989,0.407-3.998,0.418-6.007c0.046-0.677-0.183-0.854-0.852-0.845h-21L10.133,23.324z M35.721,32.284
	c1.156,0.308,2.374-0.129,3.074-1.092c0.639-0.868,0.681-2.043,0.099-2.952c-0.46-0.853-1.393-1.341-2.351-1.242L35.721,32.284z
	 M75.616,38.664l4.22,3.964c-2.557,3.31-7.959,5.22-13.771,3.709c-5.502-1.374-9.474-6.159-9.815-11.82
	c-0.361-6.49,2.784-11.573,8.347-13.659c5.307-1.986,12.254-0.706,14.936,2.707l-4.108,4.111c-1.02-1.225-2.488-1.996-4.071-2.144
	c-3.972-0.625-7.692,2.081-8.319,6.049c-0.012,0.069-0.02,0.141-0.03,0.213c-0.431,2.305,0.083,4.69,1.419,6.619
	c2.579,3.656,8.441,3.797,11.017,0.487L75.616,38.664z M132.13,38.777c0.175,1.454,1.19,2.663,2.587,3.097
	c2.047,0.856,4.409,0.251,5.79-1.483l4.024,2.541c-0.761,1.149-1.811,2.077-3.043,2.701c-3.884,2.085-9.541,1.286-12.531-1.811
	c-1.88-1.982-2.77-4.71-2.42-7.418c0.754-8.349,9.043-10.205,13.84-7.877c2.854,1.383,4.246,3.84,4.71,6.865
	c0.168,1.084,0.141,2.199,0.213,3.386H132.13z M139.837,35.133c0.072-1.217-0.548-2.374-1.605-2.99
	c-1.419-0.784-3.165-0.673-4.478,0.282c-0.955,0.574-1.548,1.594-1.579,2.708H139.837z M97.682,46.15h-5.36v-1.8h-0.243
	c-1.659,2.077-3.903,2.393-6.331,2.077c-0.623-0.08-1.232-0.239-1.811-0.472c-2.838-1.122-3.869-3.709-3.181-6.494
	c0.449-1.491,1.575-2.686,3.044-3.226c1.628-0.73,3.386-1.142,5.174-1.217l3.097-0.183c0.225-0.974-0.247-1.971-1.142-2.412
	c-1.251-0.662-2.739-0.715-4.032-0.141c-0.891,0.407-1.758,0.863-2.599,1.366l-2.884-3.043c1.381-1.335,3.108-2.256,4.987-2.663
	c1.926-0.458,3.923-0.483,5.855-0.074c2.602,0.455,4.61,2.54,4.972,5.157c0.259,1.293,0.396,2.606,0.419,3.926
	c0.061,2.845,0,5.703,0,8.552C97.682,45.724,97.682,45.899,97.682,46.15z M92.245,38.397c-0.897-0.076-1.803-0.076-2.709,0
	c-0.958,0.19-1.895,0.502-2.78,0.928c-0.62,0.327-0.939,1.039-0.78,1.724c0.068,0.658,0.525,1.206,1.16,1.392
	c1.278,0.506,2.728,0.316,3.831-0.502C92.024,41.09,92.52,39.721,92.245,38.397z M17.407,14.002h-2.173
	c-0.73,0.061-1.373-0.481-1.434-1.21c-0.062-0.73,0.482-1.371,1.209-1.434c0.076-0.006,0.152-0.006,0.225,0h2.173V9.096
	c-0.062-0.553,0.27-1.073,0.795-1.253c0.456-0.116,0.939-0.049,1.343,0.187c0.312,0.323,0.494,0.75,0.514,1.196
	c0.042,0.708,0.042,1.417,0,2.125h2.065c1.012,0,1.613,0.519,1.613,1.326c0,0.806-0.628,1.316-1.621,1.326h-1.811
	c-0.076,0.017-0.152,0.042-0.229,0.074v1.957c0,1.039-0.494,1.586-1.339,1.586s-1.324-0.584-1.331-1.596V14.002z"/>
</svg>
