<?xml version="1.0" encoding="utf-8"?>
<!-- Generator: Adobe Illustrator 16.0.0, SVG Export Plug-In . SVG Version: 6.00 Build 0)  -->
<!DOCTYPE svg PUBLIC "-//W3C//DTD SVG 1.1//EN" "http://www.w3.org/Graphics/SVG/1.1/DTD/svg11.dtd">
<svg version="1.1" id="Layer_1" xmlns="http://www.w3.org/2000/svg" xmlns:xlink="http://www.w3.org/1999/xlink" x="0px" y="0px"
	 width="129px" height="50px" viewBox="0 0 129 50" enable-background="new 0 0 129 50" xml:space="preserve">
<path fill="#3B3B3B" d="M27.937,4.142c0.024,0,0.922,0.09,0.988,0.256l2.806,8.891l15.205-4.284l0.77,0.646l1.427,19.522
	c0.145,0.128,0.057-0.189,0,0l5.263,13.151c0.116,0.379-0.225,0.763-0.637,0.635l-15.279-6.251l-5.583,9.09
	c0,0-0.095,0.185-0.329,0.228c-0.178,0.031-0.315,0.023-0.5-0.218l-4.787-7.46l-11.146,1.806L15.2,40.698
	c0,0-0.279,0.124-0.488,0.005c-0.111-0.062-0.185-0.166-0.218-0.284l-0.1,0.015c-0.516,0.042-0.846-0.794-0.156-0.965l0.872-0.14
	l5.691-6.811l-8.687-4.615c-0.247-0.147-0.322-0.465-0.175-0.706c0,0,0-0.003,0-0.005l3.587-5.171l-1.905-2.561l-0.282-0.154
	c-2.317-1.263-4.642-2.526-6.964-3.787l-1.194-0.648l-0.019-0.003c-0.27-0.06-0.097-0.974-0.012-0.99l15.757-8.886
	c0,0,0.77-0.829,1.057-0.851H27.937z M37.322,36.723l-8.99,1.455l4.137,6.445L37.322,36.723z M48.49,30.344l-8.962,5.736
	l13.523,5.535L48.49,30.344z M18.466,38.784l8.239-1.334l-1.633-2.543L18.466,38.784z M17.136,38.431l7.031-4.125l-2.481-1.317
	L17.136,38.431z M27.757,37.279l7.291-1.18L26.2,34.855L27.757,37.279z M25.769,33.806l11.04,1.552l-8.317-8.729L25.769,33.806z
	 M38.875,35.339l9.049-5.794l-7.146-8.324L38.875,35.339z M30.256,22.737l-1.379,2.877l8.542,8.966l-3.964-12.563L30.256,22.737z
	 M34.415,21.804l3.71,11.763l1.694-12.59l0.346-0.467L34.415,21.804z M23.949,30.282l0.635,2.279l0.405,0.545l2.753-7.263
	l-0.045-0.047L23.949,30.282z M22.328,32.221l1.298,0.691l-0.884-1.189L22.328,32.221z M13.059,27.299l8.386,4.452l0.699-0.834
	l-6-8.065L13.059,27.299z M16.731,22.003l6.057,8.142l0.078-0.095l-3.367-12.032L16.731,22.003z M23.626,29.14l3.393-4.057
	l-6.41-6.725L23.626,29.14z M46.777,10.335l-12.966,9.55l0.308,0.98l6.121-1.374c0.277-0.043,0.299-0.023,0.477,0.159l7.367,8.575
	L46.777,10.335z M27.65,24.33l1.398-1.927l-6.796-3.739L27.65,24.33z M27.422,15.516l2.611,5.776
	c0.161,0.085,0.609,0.355,0.609,0.355c-0.087-0.093,2.024-2.138,2.024-2.138l-1.585-5.023L27.422,15.516z M31.756,21.396
	l1.405-0.315l-0.185-0.583L31.756,21.396z M21.565,17.169l7.365,4.052l-2.46-5.436L21.565,17.169z M14.651,19.204l1.464,1.97
	l2.336-3.367L14.651,19.204z M32.024,14.222l1.474,4.677l11.203-8.25L32.024,14.222z M8.144,15.368
	c1.744,0.948,3.49,1.896,5.236,2.846l0.365,0.199c0.341-0.646,0.685-1.291,1.028-1.938L8.144,15.368z M15.793,16.646
	c-0.242,0.452-0.483,0.907-0.725,1.362l2.777-1.019L15.793,16.646z M22.186,6.303l-2.1,10.051l0.256,0.143l5.72-1.611L22.186,6.303z
	 M21.101,6.705c-1.609,3.012-3.218,6.019-4.822,9.028l2.841,0.474L21.101,6.705z M6.691,14.132l8.568,1.431
	c1.538-2.881,3.083-5.768,4.623-8.648l0.166-0.313L6.691,14.132z M28.114,5.082c-0.057,0.021-5.391,0.035-5.391,0.035l4.292,9.498
	l3.772-1.063L28.114,5.082z"/>
<circle fill="#3B3B3B" cx="47.161" cy="9.428" r="2.969"/>
<circle fill="#3B3B3B" cx="29.785" cy="22.055" r="4.085"/>
<circle fill="#3B3B3B" cx="13.878" cy="19.056" r="1.801"/>
<circle fill="#3B3B3B" cx="12.094" cy="28.202" r="2.365"/>
<circle fill="#3B3B3B" cx="25.195" cy="34.23" r="2.464"/>
<circle fill="#3B3B3B" cx="14.632" cy="40.285" r="2.316"/>
<path fill="#3B3B3B" d="M32.242,43.528c1.118,0,2.023,0.904,2.023,2.021s-0.905,2.021-2.023,2.021c-1.114,0-2.019-0.905-2.019-2.021
	S31.128,43.528,32.242,43.528z"/>
<circle fill="#3B3B3B" cx="38.159" cy="35.93" r="3.112"/>
<path fill="#3B3B3B" d="M48.957,27.285c1.336,0,2.421,1.082,2.421,2.419c0,1.336-1.085,2.417-2.421,2.417
	c-1.334,0-2.417-1.081-2.417-2.417C46.54,28.367,47.623,27.285,48.957,27.285z"/>
<circle fill="#3B3B3B" cx="40.493" cy="20.425" r="3.161"/>
<path fill="#3B3B3B" d="M53.914,40.777c1.014,0,1.839,0.821,1.839,1.841c0,1.014-0.825,1.839-1.839,1.839
	c-1.017,0-1.839-0.825-1.839-1.839C52.075,41.599,52.897,40.777,53.914,40.777z"/>
<circle fill="#3B3B3B" cx="27.937" cy="4.629" r="2.019"/>
<circle fill="#3B3B3B" cx="21.968" cy="4.957" r="2.464"/>
<circle fill="#3B3B3B" cx="5.369" cy="14.418" r="3.073"/>
<circle fill="#3B3B3B" cx="19.655" cy="16.781" r="3.009"/>
<path fill="#3B3B3B" d="M58.724,14.486h7.459c1.68,0,2.962,0.129,3.843,0.385c1.187,0.348,2.204,0.967,3.047,1.853
	c0.846,0.886,1.488,1.974,1.929,3.261c0.443,1.284,0.664,2.867,0.664,4.753c0,1.654-0.208,3.08-0.621,4.279
	c-0.504,1.465-1.228,2.649-2.163,3.555c-0.708,0.685-1.664,1.22-2.867,1.604c-0.903,0.281-2.107,0.424-3.614,0.424h-7.677V14.486
	L58.724,14.486z M62.805,17.89v13.321h3.047c1.14,0,1.962-0.062,2.467-0.189c0.661-0.166,1.211-0.445,1.647-0.839
	s0.793-1.04,1.068-1.94c0.277-0.903,0.415-2.131,0.415-3.685c0-1.555-0.138-2.749-0.415-3.581c-0.275-0.831-0.661-1.48-1.159-1.947
	c-0.495-0.467-1.123-0.782-1.886-0.945c-0.571-0.131-1.688-0.194-3.351-0.194H62.805z M79.041,34.6V14.652h4.081v16.559h10.144V34.6
	H79.041L79.041,34.6z M102.999,34.6v-4.047h-8.272v-3.375l8.767-12.771h3.256v12.758h2.507v3.389h-2.507V34.6H102.999z
	 M102.999,27.164v-6.872l-4.646,6.872H102.999L102.999,27.164z M119.365,14.486h4.066v12.734c0,1.663-0.147,2.943-0.44,3.839
	c-0.396,1.173-1.114,2.113-2.152,2.819c-1.037,0.711-2.407,1.064-4.108,1.064c-1.993,0-3.528-0.555-4.602-1.666
	c-1.076-1.111-1.618-2.741-1.628-4.891l3.846-0.441c0.048,1.152,0.216,1.967,0.512,2.443c0.44,0.723,1.109,1.083,2.01,1.083
	c0.909,0,1.554-0.256,1.931-0.772c0.377-0.519,0.566-1.593,0.566-3.218V14.486L119.365,14.486z"/>
</svg>
