<?xml version="1.0" encoding="utf-8"?>
<!-- Generator: Adobe Illustrator 16.0.0, SVG Export Plug-In . SVG Version: 6.00 Build 0)  -->
<!DOCTYPE svg PUBLIC "-//W3C//DTD SVG 1.1//EN" "http://www.w3.org/Graphics/SVG/1.1/DTD/svg11.dtd">
<svg version="1.1" id="Layer_1" xmlns="http://www.w3.org/2000/svg" xmlns:xlink="http://www.w3.org/1999/xlink" x="0px" y="0px"
	 width="146.5px" height="50px" viewBox="0 0 146.5 50" enable-background="new 0 0 146.5 50" xml:space="preserve">
<g>
	<path fill-rule="evenodd" clip-rule="evenodd" fill="#038CCA" d="M142.322,31.324c-0.436,1.973-1.272,2.796-3.233,3.152
		c-1.259,0.228-2.517,0.164-3.745-0.163c-2.005-0.533-3.104-2.084-3.118-4.434c-0.022-3.64-0.075-7.284,0.029-10.921
		c0.039-1.305-0.397-1.653-1.567-1.478c-0.319,0.048-0.655-0.016-0.981,0.01c-0.605,0.047-0.876-0.216-0.808-0.814
		c0.049-0.458-0.246-1.098,0.599-1.156c0.231-0.016,0.457-0.094,0.686-0.138c2.521-0.483,3.578-1.7,3.756-4.287
		c0.038-0.575-0.169-1.421,0.445-1.612c0.865-0.267,1.838-0.244,2.762-0.219c0.405,0.01,0.284,0.517,0.288,0.821
		c0.013,1.167,0.11,2.346-0.022,3.498c-0.15,1.317,0.392,1.544,1.562,1.505c1.186-0.041,2.415-0.292,3.575,0.222
		c0,0.841,0,1.682,0,2.522c-0.924,0.632-1.905,0.083-2.858,0.118c-1.646,0.062-1.763,0.107-1.769,1.729
		c-0.011,3.306-0.005,6.612-0.001,9.918c0,0.326,0.005,0.652,0.053,0.976c0.082,0.557,0.312,0.983,0.949,1.01
		c0.614,0.025,0.918-0.345,1.104-0.877c0.271-0.776-0.064-1.709,0.62-2.379c1.591-0.331,1.76-0.208,1.754,1.372
		C142.399,30.241,142.483,30.79,142.322,31.324z"/>
	<path fill-rule="evenodd" clip-rule="evenodd" fill="#038BCA" d="M25.856,48.148C14.33,48.517,3.208,39.021,2.743,26.009
		C2.26,12.487,13.065,2.515,24.76,2.026c13.646-0.572,23.781,10.287,24.235,22.045C49.545,38.313,37.672,48.583,25.856,48.148z"/>
	<path fill-rule="evenodd" clip-rule="evenodd" fill="#038CCA" d="M78.919,31.871c1.09-0.402,1.376-1.211,1.36-2.32
		c-0.049-3.269-0.015-6.538-0.018-9.807c-0.004-1.719-0.411-2.287-2.18-2.404c-1.105-0.074-1.096-0.592-1.12-1.418
		c-0.033-1.132,0.728-0.855,1.322-0.86c2.009-0.018,4.02,0.052,6.023-0.031c1.028-0.042,1.3,0.325,1.197,1.272
		c-0.075,0.676-0.015,1.367-0.015,2.356c1.039-1.039,1.882-1.82,2.856-2.452c2.282-1.482,4.799-1.792,7.398-1.375
		c2.742,0.439,4.113,2.174,4.157,5.127c0.046,3.176,0.007,6.352,0.011,9.527c0.001,1.807,0.3,2.298,2.115,2.418
		c1.292,0.085,1.221,0.75,1.219,1.643c-0.002,1.171-0.851,0.77-1.397,0.771c-2.847,0.014-5.695-0.029-8.544-0.045
		c-0.574-0.003-1.207,0.073-1.096-0.809c0.073-0.593-0.413-1.446,0.813-1.519c1.149-0.068,1.692-0.754,1.672-1.972
		c-0.049-2.802-0.007-5.604-0.025-8.407c-0.004-0.555-0.057-1.126-0.192-1.664c-0.415-1.649-1.392-2.262-3.074-2.192
		c-2.447,0.102-6.288,3.616-5.959,6.298c0.238,1.932,0.073,3.918,0.033,5.878c-0.018,0.877,0.213,1.557,1.014,1.979
		c0.403,0.316,0.951-0.077,1.345,0.278c0.22,0.644,0.196,1.289,0.017,1.935c-2.168,0.34-4.352,0.063-6.528,0.144
		c-0.79,0.028-1.582,0.005-2.374,0.005c-2.021-0.001-2.021-0.001-1.729-2.121l-0.001,0.003
		C77.755,31.814,78.385,32.176,78.919,31.871z"/>
	<path fill-rule="evenodd" clip-rule="evenodd" fill="#038CCA" d="M68.166,34.271c-1.681-0.001-3.366-0.053-5.045,0.019
		c-0.937,0.042-1.069-0.361-1.06-1.159c0.007-0.74,0.14-1.119,0.994-1.067c0.671,0.041,1.63,0.3,1.928-0.401
		c0.334-0.774-0.601-1.26-1.05-1.819c-0.815-1.019-1.703-1.984-2.521-3.002c-0.423-0.528-0.729-0.735-1.289-0.114
		c-1.151,1.285-2.377,2.504-3.569,3.754c-0.303,0.317-0.534,0.691-0.332,1.133c0.182,0.4,0.616,0.365,0.977,0.409
		c0.325,0.041,0.658,0.091,0.977,0.051c0.884-0.109,1.219,0.184,1.206,1.137c-0.015,0.896-0.337,1.09-1.155,1.075
		c-2.475-0.044-4.951-0.021-7.428-0.013c-0.588,0.003-1.164,0.044-1.068-0.832c0.069-0.631-0.295-1.427,0.874-1.495
		c1.32-0.075,2.354-0.818,3.269-1.734c1.615-1.621,3.215-3.258,4.869-4.839c0.585-0.559,0.713-0.918,0.092-1.574
		c-1.542-1.625-3.001-3.328-4.486-5.007c-0.783-0.883-1.761-1.433-2.925-1.456c-1.161-0.024-0.711-0.824-0.801-1.379
		c-0.125-0.789,0.304-0.919,0.982-0.914c3.177,0.026,6.354,0.05,9.529-0.012c0.979-0.02,1.002,0.433,1.03,1.182
		c0.031,0.843-0.196,1.213-1.087,1.106c-0.39-0.046-0.915-0.177-1.147,0.28c-0.271,0.533,0.255,0.833,0.512,1.192
		c0.188,0.265,0.407,0.512,0.636,0.744c0.775,0.791,1.659,2.555,2.198,2.288c1.448-0.717,2.604-2.127,3.468-3.547
		c0.567-0.93-0.469-0.99-1.105-0.957c-0.789,0.041-1.159-0.107-1.169-1.042c-0.009-0.98,0.251-1.282,1.243-1.247
		c2.146,0.074,4.297,0.015,6.445,0.028c0.515,0.002,1.226-0.213,1.14,0.737c-0.059,0.655,0.368,1.533-0.913,1.577
		c-1.371,0.047-2.44,0.771-3.38,1.768c-1.248,1.324-2.568,2.584-3.897,3.828c-0.524,0.489-0.548,0.827-0.053,1.361
		c1.908,2.051,3.763,4.149,5.659,6.212c0.678,0.737,1.505,1.335,2.522,1.383c1.213,0.058,0.915,0.867,0.96,1.569
		c0.059,0.921-0.583,0.771-1.125,0.773C71.434,34.273,69.799,34.271,68.166,34.271z"/>
	<path fill-rule="evenodd" clip-rule="evenodd" fill="#219FD9" d="M77.221,32.106c0.052,1.96,0.052,1.959,1.954,1.961
		c2.893,0.003,5.786,0.007,8.676,0.011c-0.863,0.483-1.798,0.188-2.695,0.209c-2.176,0.051-4.357,0.017-6.537,0.017
		C76.758,34.302,76.567,34.001,77.221,32.106z"/>
	<path fill-rule="evenodd" clip-rule="evenodd" fill="#219FD9" d="M78.919,31.871c-0.512,0.472-1.122,0.243-1.699,0.238
		C77.757,31.827,78.349,31.916,78.919,31.871z"/>
	<path fill-rule="evenodd" clip-rule="evenodd" fill="#219FD9" d="M87.835,32.144c-0.46-0.031-0.97,0.165-1.345-0.278
		C86.944,31.931,87.441,31.79,87.835,32.144z"/>
	<path fill-rule="evenodd" clip-rule="evenodd" fill="#FEFEFE" d="M8.367,18.346c-1.465-0.451-1.732-1.331-0.895-2.953
		c0.15-0.188,0.339-0.319,0.583-0.325c2.308-0.059,4.614-0.064,6.921,0.003c0.248,0.007,0.431,0.144,0.563,0.349
		c0.119,0.15,0.24,0.299,0.361,0.448c0.343,0.427,0.202,0.953,0.303,1.427c0.18,0.839,0.401,0.036,0.607-0.019
		c0.161-0.108,0.335-0.185,0.515-0.255c1.547-0.73,3.047-1.58,4.737-1.966c0.902-0.453,1.802-0.477,2.698,0.017
		c1.923,0.633,3.599,1.545,4.138,4.003c1.305-1.759,2.885-2.746,4.608-3.528c0.256-0.173,0.495-0.401,0.849-0.248
		c1.483-0.307,2.966-0.313,4.447,0.025c0.363,0.228,0.913,0.027,1.164,0.51c1.018,0.574,1.571,1.512,2.004,2.546
		c0.795,0.787,0.59,1.816,0.608,2.758c0.063,3.249-0.027,6.5,0.051,9.749c0.121,0.298-0.081,0.646,0.139,0.931
		c0.728,0.852,1.896,0.357,2.726,0.895c0.526,0.713,0.499,1.437,0.041,2.169c-0.293,0.256-0.633,0.341-1.021,0.339
		c-3.188-0.007-6.379,0-9.567-0.011c-0.308-0.001-0.662,0.055-0.876-0.277c-0.374-0.752-0.466-1.496,0.066-2.222
		c0.592-0.47,1.525-0.103,2.015-0.823c-0.042-0.164-0.051-0.329-0.026-0.496c0.145-3.382,0.101-6.764,0.022-10.145
		c-0.086-0.281-0.104-0.573-0.113-0.863c-0.162-0.635-0.341-1.258-1.109-1.423c-0.392-0.026-0.801,0.037-1.131-0.255
		c-0.603,0.19-1.272,0.248-1.672,0.842c-0.297,0.351-0.475,0.794-0.847,1.088c-0.587,0.466-1.322,0.795-1.505,1.633
		c-0.359,2.826-0.101,5.665-0.191,8.497c-0.017,0.554,0.169,0.996,0.495,1.408c0.407,0.479,1.43-0.013,1.498,1.109
		c0.104,1.705-0.017,1.934-1.734,1.933c-2.876-0.003-5.754-0.011-8.634-0.018c-0.949-0.742-0.671-1.609-0.251-2.491
		c0.557-0.429,1.366-0.138,1.89-0.659c0.341-4,0.237-8.002,0.05-12.004c0.145-0.532-0.423-0.526-0.61-0.808
		c-0.123-0.141-0.299-0.181-0.464-0.242c-0.399-0.097-0.858,0.044-1.199-0.293c-2.264,0.557-3.487,2.216-4.427,4.176
		c0.126,2.212,0.004,4.426,0.05,6.639c0.013,0.644-0.055,1.297,0.202,1.914c0.158,0.36,0.579,0.438,0.795,0.738
		c1.221,0.261,1.127,1.191,1.118,2.118c-0.005,0.646-0.248,0.936-0.902,0.933c-3.167-0.01-6.335-0.011-9.503,0.001
		c-0.801,0.003-0.937-0.497-0.861-1.109s-0.379-1.439,0.729-1.667c2.284-0.467,2.433-0.685,2.433-2.98
		c0-2.935,0.011-5.87-0.011-8.804c-0.003-0.479,0.218-1.036-0.284-1.429C9.681,18.484,8.746,18.913,8.367,18.346z"/>
	<path fill-rule="evenodd" clip-rule="evenodd" fill="#078BCA" d="M22.892,20.046c0.63,0.567,0.522,1.355,0.533,2.061
		c0.039,2.831,0.015,5.663,0.017,8.495c0,0.567-0.005,1.129-0.6,1.449c-0.086-0.16-0.174-0.321-0.262-0.482
		c0.322-2.247,0.069-4.505,0.139-6.756c0.033-1.062,0.005-2.125,0.005-3.186c0.051-0.51-0.119-1.038,0.125-1.531L22.892,20.046z"/>
	<path fill-rule="evenodd" clip-rule="evenodd" fill="#0086C8" d="M16.388,31.958c-0.332-0.169-0.451-0.509-0.453-0.812
		c-0.015-2.59,0-5.181,0.022-7.771c0.002-0.166,0.154-0.331,0.234-0.496c0.068,0.002,0.134,0.004,0.202,0.003
		C16.643,25.907,16.663,28.933,16.388,31.958z"/>
	<path fill-rule="evenodd" clip-rule="evenodd" fill="#128CCA" d="M42.444,31.363c-0.376-0.549-0.178-1.168-0.202-1.756
		c-0.143-3.741,0.284-7.496-0.273-11.227c1.318-0.119,0.584,0.912,0.793,1.416c-0.003,3.331,0.007,6.662-0.009,9.993
		C42.75,30.323,42.922,30.914,42.444,31.363z"/>
	<path fill-rule="evenodd" clip-rule="evenodd" fill="#0186C8" d="M42.444,31.363c0.017-3.375,0.024-6.75,0.055-10.126
		c0.003-0.486-0.184-1.028,0.264-1.441v-0.001c0.297,2.027,0.116,4.067,0.119,6.101c0.002,1.894,0.172,3.795-0.115,5.685
		c-0.002,0.079-0.002,0.158,0.001,0.238C42.499,31.782,42.453,31.586,42.444,31.363z"/>
	<path fill-rule="evenodd" clip-rule="evenodd" fill="#0C8CCA" d="M36.351,31.583c-0.068,0.103-0.134,0.204-0.2,0.306
		c-0.585,0.07-1.169,0.14-1.754,0.212c1.461-0.313,1.39-1.387,1.371-2.514c-0.042-2.516-0.013-5.034-0.013-7.551
		c0.192-0.02,0.337,0.051,0.436,0.215c0.277,2.596,0.05,5.199,0.123,7.798C36.327,30.561,36.299,31.072,36.351,31.583z"/>
	<path fill-rule="evenodd" clip-rule="evenodd" fill="#0082C7" d="M30.074,32.176c-0.751-0.045-0.878-0.587-0.88-1.172
		c-0.011-2.455-0.007-4.909,0.003-7.364c0.004-0.525,0.2-0.989,0.572-1.369c0.418,0.252,0.5,0.542,0.101,0.887
		c-0.244,2.804-0.242,5.606-0.002,8.41C30.096,31.716,30.508,31.803,30.074,32.176z"/>
	<path fill-rule="evenodd" clip-rule="evenodd" fill="#128CCA" d="M42.767,31.581c-0.002-3.929-0.004-7.857-0.004-11.786
		c0.301,0.228,0.281,0.56,0.281,0.884c0,3.337,0,6.674,0,10.011C43.043,31.016,43.058,31.345,42.767,31.581z"/>
	<path fill-rule="evenodd" clip-rule="evenodd" fill="#128CCA" d="M45.005,35.771c0.09,0.169-0.006,0.275-0.15,0.276
		c-3.356,0.007-6.715,0.006-10.071,0.004c-0.04,0-0.108-0.021-0.117-0.047c-0.024-0.073-0.022-0.154-0.031-0.233
		C38.09,35.547,41.547,35.547,45.005,35.771z"/>
	<path fill-rule="evenodd" clip-rule="evenodd" fill="#0088C9" d="M7.444,35.774c0.189-0.251,0.462-0.279,0.745-0.279
		c3.054,0,6.107,0,9.162,0c0.284,0,0.555,0.027,0.744,0.279C14.544,35.995,10.995,35.995,7.444,35.774z"/>
	<path fill-rule="evenodd" clip-rule="evenodd" fill="#128CCA" d="M7.444,35.774c3.551,0,7.1,0,10.65,0
		c-0.19,0.25-0.462,0.278-0.746,0.278c-3.052-0.001-6.106-0.001-9.16,0C7.906,36.052,7.633,36.024,7.444,35.774z"/>
	<path fill-rule="evenodd" clip-rule="evenodd" fill="#178DCB" d="M16.388,31.958c0.002-3.025,0.004-6.05,0.005-9.076
		c0.458,0.343,0.288,0.842,0.293,1.281c0.017,1.752,0.019,3.506,0.002,5.259c-0.009,0.958-0.051,1.914,0.55,2.747
		C16.966,32.061,16.61,32.276,16.388,31.958z"/>
	<path fill-rule="evenodd" clip-rule="evenodd" fill="#0088C9" d="M45.005,35.771c-3.458,0-6.915,0-10.37,0
		c0.189-0.249,0.462-0.276,0.744-0.276c2.96,0,5.919,0,8.88,0C44.543,35.495,44.814,35.522,45.005,35.771z"/>
	<path fill-rule="evenodd" clip-rule="evenodd" fill="#0089C9" d="M21.46,35.771c0.156-0.087,0.313-0.25,0.469-0.251
		c3.105-0.003,6.208,0.009,9.314,0.025c0.022,0,0.063,0.062,0.064,0.097c0.004,0.043-0.025,0.087-0.04,0.131
		C27.999,35.995,24.729,35.998,21.46,35.771z"/>
	<path fill-rule="evenodd" clip-rule="evenodd" fill="#0D8CCA" d="M22.857,21.474c0.001,2.882,0.011,5.765-0.006,8.647
		c-0.001,0.489,0.187,1.035-0.271,1.446c0-3.365,0.001-6.729,0.001-10.093C22.674,21.353,22.766,21.347,22.857,21.474z"/>
	<path fill-rule="evenodd" clip-rule="evenodd" fill="#128CCA" d="M21.46,35.771c3.269,0.001,6.539,0.002,9.807,0.002
		c-0.156,0.088-0.312,0.252-0.469,0.252c-3.104,0.005-6.209-0.009-9.313-0.024c-0.023,0-0.064-0.062-0.067-0.097
		C21.417,35.86,21.446,35.815,21.46,35.771z"/>
	<path fill-rule="evenodd" clip-rule="evenodd" fill="#1B8ECB" d="M29.869,31.568c-0.605-1.509-0.232-3.083-0.248-4.621
		c-0.013-1.258-0.348-2.563,0.25-3.789C29.869,25.961,29.869,28.764,29.869,31.568z"/>
	<path fill-rule="evenodd" clip-rule="evenodd" fill="#208ECB" d="M7.444,15.031c0.6-0.537,1.333-0.293,1.985-0.259
		c2.048,0.109,4.121-0.375,6.143,0.256C12.863,15.255,10.154,15.25,7.444,15.031z"/>
	<path fill-rule="evenodd" clip-rule="evenodd" fill="#0081C6" d="M7.444,15.031c2.709-0.001,5.419-0.002,8.128-0.003
		c-0.011,0.131-0.022,0.261-0.033,0.392c-2.689-0.009-5.378-0.018-8.067-0.027C7.461,15.271,7.454,15.151,7.444,15.031z"/>
	<path fill-rule="evenodd" clip-rule="evenodd" fill="#0889C9" d="M17.021,17.288c-0.053,0.619-0.517,0.917-1.12,1.398
		c0-1.044,0-1.931,0-2.818c0.171,0.001,0.343,0.002,0.514,0.003C16.707,16.304,16.326,17.026,17.021,17.288z"/>
	<path fill-rule="evenodd" clip-rule="evenodd" fill="#1A8DCB" d="M21.46,14.75c1.169-0.619,2.409-0.163,3.617-0.229
		c0.022-0.001,0.064,0.062,0.066,0.097c0.004,0.043-0.026,0.088-0.041,0.132C23.887,14.968,22.674,14.968,21.46,14.75z"/>
	<path fill-rule="evenodd" clip-rule="evenodd" fill="#0082C7" d="M21.46,14.75c1.213,0,2.427,0,3.642,0
		c-0.113,0.107-0.229,0.215-0.343,0.322c-0.9-0.004-1.798-0.01-2.698-0.017C21.827,15.021,21.589,14.993,21.46,14.75z"/>
	<path fill-rule="evenodd" clip-rule="evenodd" fill="#1B8DCB" d="M37.66,14.701c-0.803,0-1.606,0-2.409,0
		c0-0.047-0.002-0.094-0.004-0.14c0.803,0,1.608,0,2.411,0C37.658,14.607,37.66,14.654,37.66,14.701z"/>
	<path fill-rule="evenodd" clip-rule="evenodd" fill="#0887C8" d="M20.953,32.709c0.079,0.832-0.248,1.703,0.251,2.491
		c-0.194,0.024-0.387,0.324-0.586,0.006c-0.213-0.839-0.213-1.678,0-2.517C20.729,32.696,20.843,32.703,20.953,32.709z"/>
	<path fill-rule="evenodd" clip-rule="evenodd" fill="#178CCA" d="M35.188,18.735c0.708,0.169,0.95,0.708,1.067,1.346
		c-0.063,0.088-0.146,0.136-0.251,0.151c-0.104-0.018-0.186-0.07-0.246-0.158c-0.187-0.284-0.377-0.567-0.564-0.851
		c-0.088-0.06-0.139-0.14-0.156-0.243C35.051,18.877,35.101,18.795,35.188,18.735z"/>
	<path fill-rule="evenodd" clip-rule="evenodd" fill="#0083C7" d="M8.367,18.346c0.7-0.009,1.384,0.012,1.591,0.887
		c-0.277-0.093-0.552-0.186-0.829-0.278c-0.417-0.346-0.982,0.05-1.404-0.281C7.716,18.127,8.183,18.515,8.367,18.346z"/>
	<path fill-rule="evenodd" clip-rule="evenodd" fill="#138BCA" d="M18.863,32.701c0,0.74,0,1.48,0,2.221
		c-0.044-0.001-0.088-0.001-0.132-0.001c0-0.741,0-1.481,0-2.221C18.775,32.699,18.819,32.7,18.863,32.701z"/>
	<path fill-rule="evenodd" clip-rule="evenodd" fill="#188DCA" d="M33.793,34.932c-0.583-0.687-0.172-1.478-0.231-2.22
		c-0.002-0.021,0.064-0.065,0.099-0.068c0.042-0.003,0.086,0.028,0.13,0.045C34.013,33.437,34.012,34.185,33.793,34.932z"/>
	<path fill-rule="evenodd" clip-rule="evenodd" fill="#1C8CCA" d="M20.617,32.69c0,0.838,0,1.677,0,2.517
		C20.17,34.367,20.172,33.528,20.617,32.69z"/>
	<path fill-rule="evenodd" clip-rule="evenodd" fill="#1D8DCA" d="M45.844,32.689c0.451,0.84,0.447,1.681,0.004,2.522
		C45.628,34.371,45.63,33.529,45.844,32.689z"/>
	<path fill-rule="evenodd" clip-rule="evenodd" fill="#0081C6" d="M45.844,32.689c0.002,0.84,0.002,1.682,0.004,2.522
		c-0.104-0.11-0.209-0.22-0.313-0.329c-0.013-0.723-0.028-1.446-0.041-2.169C45.611,32.706,45.727,32.697,45.844,32.689z"/>
	<path fill-rule="evenodd" clip-rule="evenodd" fill="#198DCB" d="M6.605,17.833c-0.504-0.598-0.235-1.289-0.229-1.947
		c0-0.023,0.066-0.063,0.103-0.063c0.041-0.001,0.084,0.03,0.126,0.048C6.816,16.525,6.816,17.179,6.605,17.833z"/>
	<path fill-rule="evenodd" clip-rule="evenodd" fill="#198DCB" d="M6.605,34.931c-0.435-0.747-0.437-1.494,0-2.241
		C6.821,33.437,6.821,34.184,6.605,34.931z"/>
	<path fill-rule="evenodd" clip-rule="evenodd" fill="#0082C7" d="M6.605,34.931c0-0.747,0-1.494,0-2.241
		C7.028,33.437,7.028,34.184,6.605,34.931z"/>
	<path fill-rule="evenodd" clip-rule="evenodd" fill="#118BC9" d="M31.275,20.637c-0.163-0.708,0.39-0.862,0.847-1.088
		C32.133,20.14,31.971,20.597,31.275,20.637z"/>
	<path fill-rule="evenodd" clip-rule="evenodd" fill="#0786C8" d="M33.793,34.932c0-0.747,0-1.495-0.002-2.243
		c0.116,0.007,0.231,0.016,0.345,0.023c-0.022,0.74-0.044,1.481-0.066,2.222C33.977,34.933,33.885,34.932,33.793,34.932z"/>
	<path fill-rule="evenodd" clip-rule="evenodd" fill="#118CCA" d="M17.021,17.288c-0.931-0.161-0.497-0.906-0.606-1.417
		c0.455,0.263,0.093,1.172,0.911,1.15C17.222,17.11,17.122,17.199,17.021,17.288z"/>
	<path fill-rule="evenodd" clip-rule="evenodd" fill="#0082C7" d="M6.605,17.833c0-0.653,0-1.307,0-1.961
		C7.036,16.525,7.036,17.179,6.605,17.833z"/>
	<path fill-rule="evenodd" clip-rule="evenodd" fill="#1A8DCB" d="M35.758,20.075c0.099,0.003,0.196,0.006,0.295,0.009
		c0.13,0.588,0.335,1.17,0.136,1.784c-0.051,0.056-0.104,0.112-0.156,0.167l-0.14,0.001h-0.139
		C35.757,21.382,35.758,20.729,35.758,20.075z"/>
	<path fill-rule="evenodd" clip-rule="evenodd" fill="#178AC9" d="M34.354,15.299c-0.284,0.083-0.566,0.165-0.849,0.248
		c0.055-0.206,0.069-0.56,0.172-0.588C33.94,14.889,34.188,15.061,34.354,15.299z"/>
	<path fill-rule="evenodd" clip-rule="evenodd" fill="#1D8DCA" d="M22.056,18.944c0.156,0.034,0.273,0.102,0.226,0.294
		c-0.552-0.097-1.177,0.223-1.663-0.28C21.096,18.735,21.574,18.755,22.056,18.944z"/>
	<path fill-rule="evenodd" clip-rule="evenodd" fill="#1B8CCA" d="M39.965,15.834c-0.389-0.17-0.775-0.34-1.164-0.51
		C39.254,15.346,39.817,15.116,39.965,15.834z"/>
	<path fill-rule="evenodd" clip-rule="evenodd" fill="#148CCA" d="M44.468,32.042c0.254-0.245,0.539-0.246,0.836-0.084
		C45.054,32.288,44.753,32.022,44.468,32.042z"/>
	<path fill-rule="evenodd" clip-rule="evenodd" fill="#198DCB" d="M22.857,21.474l-0.138,0.001h-0.138
		c0.072-0.464-0.194-0.993,0.268-1.38C22.852,20.555,22.855,21.014,22.857,21.474z"/>
	<path fill-rule="evenodd" clip-rule="evenodd" fill="#1C8CCA" d="M35.188,18.942c0.002,0.094,0.003,0.188,0.005,0.282
		c-0.475-0.051-1.004,0.194-1.4-0.267C34.255,18.733,34.721,18.758,35.188,18.942z"/>
	<path fill-rule="evenodd" clip-rule="evenodd" fill="#0084C7" d="M35.188,18.942c-0.466,0.005-0.931,0.01-1.395,0.015
		c0-0.083,0-0.167,0-0.25c0.467-0.098,0.933-0.148,1.395,0.028C35.187,18.805,35.187,18.874,35.188,18.942z"/>
	<path fill-rule="evenodd" clip-rule="evenodd" fill="#0083C7" d="M22.056,18.944c-0.48,0.003-0.957,0.008-1.437,0.014
		c0-0.085,0-0.169,0-0.255C21.116,18.672,21.657,18.384,22.056,18.944z"/>
	<path fill-rule="evenodd" clip-rule="evenodd" fill="#1A8DCB" d="M7.725,18.674c0.473,0.069,1.012-0.189,1.404,0.281
		C8.656,18.886,8.119,19.143,7.725,18.674z"/>
	<path fill-rule="evenodd" clip-rule="evenodd" fill="#038CCA" d="M121.447,15.121c-7.175-3.311-14.643,0.921-15.178,8.762
		c-0.389,5.67,1.952,10.105,8.246,10.971c4.969,0.684,8.773-1.146,10.394-5.148c0.17-0.422,0.984-1.175-0.13-1.397
		c-0.688-0.137-1.597-0.959-2.154,0.499c-0.979,2.573-3.334,3.804-6.324,3.571c-2.229-0.174-3.763-1.659-4.443-4.378
		c-0.204-0.812-0.284-1.654-0.418-2.481c-0.125-0.776,0.167-1.068,0.986-1.048c2.101,0.049,4.201,0.017,6.302,0.017
		c2.101-0.001,4.203,0.007,6.304-0.008c0.418-0.004,0.896,0.183,1.02-0.581C126.565,20.677,124.402,16.483,121.447,15.121z
		 M120.448,22.415c-1.351,0-2.7,0-4.051,0c-1.349,0-2.698,0.009-4.049-0.006c-0.383-0.004-0.896,0.135-0.81-0.592
		c0.39-3.234,2.167-5.352,5.162-5.338c2.578,0.011,4.909,2.762,4.598,5.319C121.221,22.422,120.878,22.415,120.448,22.415z"/>
	<path fill-rule="evenodd" clip-rule="evenodd" fill="#028AC9" d="M36.351,31.583c-0.497-0.391-0.304-0.945-0.308-1.433
		c-0.018-2.705-0.009-5.409-0.009-8.114l0.001,0.002c0.334-0.333-0.057-0.86,0.315-1.183c0.556,2.797,0.152,5.625,0.24,8.437
		C36.616,30.05,36.847,30.866,36.351,31.583z"/>
	<path fill-rule="evenodd" clip-rule="evenodd" fill="#0083C7" d="M36.351,20.854c-0.095,0.397,0.101,0.872-0.315,1.183
		c0.006-0.651,0.011-1.302,0.017-1.953c0.068,0.003,0.136,0.002,0.204-0.003C36.287,20.339,36.318,20.597,36.351,20.854z"/>
</g>
</svg>
