<?xml version="1.0" encoding="utf-8"?>
<!-- Generator: Adobe Illustrator 16.0.0, SVG Export Plug-In . SVG Version: 6.00 Build 0)  -->
<!DOCTYPE svg PUBLIC "-//W3C//DTD SVG 1.1//EN" "http://www.w3.org/Graphics/SVG/1.1/DTD/svg11.dtd">
<svg version="1.1" id="Layer_1" xmlns="http://www.w3.org/2000/svg" xmlns:xlink="http://www.w3.org/1999/xlink" x="0px" y="0px"
	 width="198px" height="50px" viewBox="0 0 198 50" enable-background="new 0 0 198 50" xml:space="preserve">
<circle cx="141.537" cy="25.872" r="16.464"/>
<linearGradient id="SVGID_1_" gradientUnits="userSpaceOnUse" x1="422.5361" y1="-257.5806" x2="422.5361" y2="-291.4102" gradientTransform="matrix(1 0 0 -1 -281 -249)">
	<stop  offset="0" style="stop-color:#FEFEFE"/>
	<stop  offset="1" style="stop-color:#CACACA"/>
</linearGradient>
<path fill="url(#SVGID_1_)" d="M141.537,8.355c9.464,0,17.142,7.675,17.142,17.14c0,9.467-7.678,17.141-17.142,17.141
	c-9.467,0-17.142-7.673-17.142-17.141C124.396,16.03,132.07,8.355,141.537,8.355z"/>
<linearGradient id="SVGID_2_" gradientUnits="userSpaceOnUse" x1="422.5361" y1="-259.0098" x2="422.5361" y2="-285.8478" gradientTransform="matrix(1 0 0 -1 -281 -249)">
	<stop  offset="0" style="stop-color:#A2D2DE"/>
	<stop  offset="1" style="stop-color:#B4E4F2"/>
</linearGradient>
<circle fill="url(#SVGID_2_)" cx="141.537" cy="25.496" r="15.674"/>
<line opacity="0.3" fill="none" stroke="#000000" stroke-width="0.4511" enable-background="new    " x1="133.416" y1="20.985" x2="142.588" y2="16.774"/>
<line opacity="0.3" fill="none" stroke="#000000" stroke-width="0.4511" enable-background="new    " x1="133.416" y1="30.007" x2="142.588" y2="16.774"/>
<line opacity="0.3" fill="none" stroke="#000000" stroke-width="0.4511" enable-background="new    " x1="133.416" y1="20.985" x2="142.588" y2="22.602"/>
<line opacity="0.3" fill="none" stroke="#000000" stroke-width="0.4511" enable-background="new    " x1="133.416" y1="30.007" x2="142.588" y2="22.602"/>
<line opacity="0.3" fill="none" stroke="#000000" stroke-width="0.4511" enable-background="new    " x1="133.416" y1="20.985" x2="142.588" y2="28.427"/>
<line opacity="0.3" fill="none" stroke="#000000" stroke-width="0.4511" enable-background="new    " x1="133.416" y1="30.007" x2="142.588" y2="28.427"/>
<line opacity="0.3" fill="none" stroke="#000000" stroke-width="0.4511" enable-background="new    " x1="133.416" y1="20.985" x2="142.588" y2="34.217"/>
<line opacity="0.3" fill="none" stroke="#000000" stroke-width="0.4511" enable-background="new    " x1="133.416" y1="30.007" x2="142.588" y2="34.217"/>
<line opacity="0.3" fill="none" stroke="#000000" stroke-width="0.4511" enable-background="new    " x1="142.588" y1="16.774" x2="151.799" y2="25.495"/>
<line opacity="0.3" fill="none" stroke="#000000" stroke-width="0.4511" enable-background="new    " x1="142.588" y1="22.602" x2="151.799" y2="25.495"/>
<line opacity="0.3" fill="none" stroke="#000000" stroke-width="0.4511" enable-background="new    " x1="142.588" y1="28.427" x2="151.799" y2="25.495"/>
<line opacity="0.3" fill="none" stroke="#000000" stroke-width="0.4511" enable-background="new    " x1="142.588" y1="34.217" x2="151.799" y2="25.495"/>
<line fill="none" stroke="#55838D" stroke-width="0.3759" x1="133.416" y1="20.985" x2="142.588" y2="16.774"/>
<line fill="none" stroke="#55838D" stroke-width="0.3759" x1="133.416" y1="30.007" x2="142.588" y2="16.774"/>
<line fill="none" stroke="#55838D" stroke-width="0.3759" x1="133.416" y1="20.985" x2="142.588" y2="22.602"/>
<line fill="none" stroke="#55838D" stroke-width="0.3759" x1="133.416" y1="30.007" x2="142.588" y2="22.602"/>
<line fill="none" stroke="#55838D" stroke-width="0.3759" x1="133.416" y1="20.985" x2="142.588" y2="28.427"/>
<line fill="none" stroke="#55838D" stroke-width="0.3759" x1="133.416" y1="30.007" x2="142.588" y2="28.427"/>
<line fill="none" stroke="#55838D" stroke-width="0.3759" x1="133.416" y1="20.985" x2="142.588" y2="34.217"/>
<line fill="none" stroke="#55838D" stroke-width="0.3759" x1="133.416" y1="30.007" x2="142.588" y2="34.217"/>
<line fill="none" stroke="#55838D" stroke-width="0.3759" x1="142.588" y1="16.774" x2="151.799" y2="25.495"/>
<line fill="none" stroke="#55838D" stroke-width="0.3759" x1="142.588" y1="22.602" x2="151.799" y2="25.495"/>
<line fill="none" stroke="#55838D" stroke-width="0.3759" x1="142.588" y1="28.427" x2="151.799" y2="25.495"/>
<line fill="none" stroke="#55838D" stroke-width="0.3759" x1="142.588" y1="34.217" x2="151.799" y2="25.495"/>
<line fill="none" stroke="#55838D" stroke-width="0.3007" x1="133.416" y1="20.985" x2="142.588" y2="16.774"/>
<line fill="none" stroke="#55838D" stroke-width="0.3007" x1="133.416" y1="30.007" x2="142.588" y2="16.774"/>
<line fill="none" stroke="#55838D" stroke-width="0.3007" x1="133.416" y1="20.985" x2="142.588" y2="22.602"/>
<line fill="none" stroke="#55838D" stroke-width="0.3007" x1="133.416" y1="30.007" x2="142.588" y2="22.602"/>
<line fill="none" stroke="#55838D" stroke-width="0.3007" x1="133.416" y1="20.985" x2="142.588" y2="28.427"/>
<line fill="none" stroke="#55838D" stroke-width="0.3007" x1="133.416" y1="30.007" x2="142.588" y2="28.427"/>
<line fill="none" stroke="#55838D" stroke-width="0.3007" x1="133.416" y1="20.985" x2="142.588" y2="34.217"/>
<line fill="none" stroke="#55838D" stroke-width="0.3007" x1="133.416" y1="30.007" x2="142.588" y2="34.217"/>
<line fill="none" stroke="#55838D" stroke-width="0.3007" x1="142.588" y1="16.774" x2="151.799" y2="25.495"/>
<line fill="none" stroke="#55838D" stroke-width="0.3007" x1="142.588" y1="22.602" x2="151.799" y2="25.495"/>
<line fill="none" stroke="#55838D" stroke-width="0.3007" x1="142.588" y1="28.427" x2="151.799" y2="25.495"/>
<line fill="none" stroke="#55838D" stroke-width="0.3007" x1="142.588" y1="34.217" x2="151.799" y2="25.495"/>
<g transform="translate(296, 392)">
	<circle opacity="0.8" fill="#A2D2DE" enable-background="new    " cx="-162.584" cy="-371.015" r="2.33"/>
	
		<radialGradient id="SVGID_3_" cx="-609.6309" cy="-306.1406" r="0.019" gradientTransform="matrix(100 0 0 -100 60800.5 -30985)" gradientUnits="userSpaceOnUse">
		<stop  offset="0" style="stop-color:#578691"/>
		<stop  offset="0.9" style="stop-color:#55838D"/>
		<stop  offset="1" style="stop-color:#44777A"/>
	</radialGradient>
	<path fill="url(#SVGID_3_)" d="M-162.584-372.894c1.039,0,1.882,0.841,1.882,1.878c0,1.039-0.843,1.879-1.882,1.879
		c-1.036,0-1.877-0.841-1.877-1.879C-164.461-372.052-163.62-372.894-162.584-372.894z"/>
</g>
<g transform="translate(296, 632)">
	<circle opacity="0.8" fill="#A2D2DE" enable-background="new    " cx="-162.584" cy="-601.994" r="2.33"/>
	
		<radialGradient id="SVGID_4_" cx="-609.6309" cy="-543.8301" r="0.019" gradientTransform="matrix(100 0 0 -100 60800.5 -54985)" gradientUnits="userSpaceOnUse">
		<stop  offset="0" style="stop-color:#578691"/>
		<stop  offset="0.9" style="stop-color:#55838D"/>
		<stop  offset="1" style="stop-color:#44777A"/>
	</radialGradient>
	<path fill="url(#SVGID_4_)" d="M-162.584-603.873c1.039,0,1.882,0.841,1.882,1.879c0,1.038-0.843,1.878-1.882,1.878
		c-1.036,0-1.877-0.841-1.877-1.878C-164.461-603.032-163.62-603.873-162.584-603.873z"/>
</g>
<g transform="translate(540, 280)">
	<circle opacity="0.8" fill="#A2D2DE" enable-background="new    " cx="-397.412" cy="-263.224" r="2.331"/>
	
		<radialGradient id="SVGID_5_" cx="-855.9795" cy="-195.2178" r="0.0188" gradientTransform="matrix(100 0 0 -100 85200.5 -19785)" gradientUnits="userSpaceOnUse">
		<stop  offset="0" style="stop-color:#578691"/>
		<stop  offset="0.9" style="stop-color:#55838D"/>
		<stop  offset="1" style="stop-color:#44777A"/>
	</radialGradient>
	<path fill="url(#SVGID_5_)" d="M-397.412-265.104c1.039,0,1.88,0.841,1.88,1.878c0,1.039-0.841,1.881-1.88,1.881
		c-1.035,0-1.879-0.842-1.879-1.881C-399.291-264.263-398.447-265.104-397.412-265.104z"/>
</g>
<g transform="translate(540, 435)">
	<circle opacity="0.8" fill="#A2D2DE" enable-background="new    " cx="-397.412" cy="-412.398" r="2.331"/>
	
		<radialGradient id="SVGID_6_" cx="-855.9795" cy="-348.7266" r="0.0188" gradientTransform="matrix(100 0 0 -100 85200.5 -35285)" gradientUnits="userSpaceOnUse">
		<stop  offset="0" style="stop-color:#578691"/>
		<stop  offset="0.9" style="stop-color:#55838D"/>
		<stop  offset="1" style="stop-color:#44777A"/>
	</radialGradient>
	<path fill="url(#SVGID_6_)" d="M-397.412-414.278c1.039,0,1.88,0.841,1.88,1.879c0,1.037-0.841,1.879-1.88,1.879
		c-1.035,0-1.879-0.842-1.879-1.879C-399.291-413.437-398.447-414.278-397.412-414.278z"/>
</g>
<g transform="translate(540, 590)">
	<circle opacity="0.8" fill="#A2D2DE" enable-background="new    " cx="-397.412" cy="-561.572" r="2.33"/>
	
		<radialGradient id="SVGID_7_" cx="-855.9795" cy="-502.2344" r="0.0188" gradientTransform="matrix(100 0 0 -100 85200.5 -50785)" gradientUnits="userSpaceOnUse">
		<stop  offset="0" style="stop-color:#578691"/>
		<stop  offset="0.9" style="stop-color:#55838D"/>
		<stop  offset="1" style="stop-color:#44777A"/>
	</radialGradient>
	<path fill="url(#SVGID_7_)" d="M-397.412-563.451c1.039,0,1.88,0.841,1.88,1.878c0,1.039-0.841,1.88-1.88,1.88
		c-1.035,0-1.879-0.841-1.879-1.88C-399.291-562.61-398.447-563.451-397.412-563.451z"/>
</g>
<g transform="translate(540, 744)">
	<circle opacity="0.8" fill="#A2D2DE" enable-background="new    " cx="-397.412" cy="-709.784" r="2.331"/>
	
		<radialGradient id="SVGID_8_" cx="-855.9795" cy="-654.7529" r="0.0188" gradientTransform="matrix(100 0 0 -100 85200.5 -66185)" gradientUnits="userSpaceOnUse">
		<stop  offset="0" style="stop-color:#578691"/>
		<stop  offset="0.9" style="stop-color:#55838D"/>
		<stop  offset="1" style="stop-color:#44777A"/>
	</radialGradient>
	<path fill="url(#SVGID_8_)" d="M-397.412-711.664c1.039,0,1.88,0.841,1.88,1.881c0,1.037-0.841,1.878-1.88,1.878
		c-1.035,0-1.879-0.841-1.879-1.878C-399.291-710.822-398.447-711.664-397.412-711.664z"/>
</g>
<g transform="translate(785, 512)">
	<circle opacity="0.8" fill="#A2D2DE" enable-background="new    " cx="-633.201" cy="-486.504" r="2.33"/>
	
		<radialGradient id="SVGID_9_" cx="-1103.3369" cy="-424.9844" r="0.0186" gradientTransform="matrix(100 0 0 -100 109700.5 -42985)" gradientUnits="userSpaceOnUse">
		<stop  offset="0" style="stop-color:#578691"/>
		<stop  offset="0.9" style="stop-color:#55838D"/>
		<stop  offset="1" style="stop-color:#44777A"/>
	</radialGradient>
	<circle fill="url(#SVGID_9_)" cx="-633.201" cy="-486.504" r="1.879"/>
</g>
<g>
	<path fill-rule="evenodd" clip-rule="evenodd" d="M27.959,35.735c0-0.687,0-1.055,0-1.424c0-8.248,0.016-16.496-0.023-24.745
		c-0.002-0.938,0.198-1.357,1.186-1.196c0.336,0.056,0.694,0.032,1.038,0.004c0.487-0.039,0.729,0.138,0.68,0.648
		c-0.013,0.154-0.003,0.309-0.003,0.463c0,11.023,0.003,22.045,0.003,33.069c0,0.292,0,0.583,0,1.222
		C22.646,34.078,14.674,24.636,6.502,14.96c0,0.678,0,1.045,0,1.413c0,8.441-0.016,16.881,0.025,25.323
		c0.003,0.922-0.251,1.235-1.139,1.099c-0.3-0.046-0.62-0.043-0.923,0c-0.708,0.102-0.902-0.162-0.902-0.882
		c0.023-11.37,0.016-22.739,0.018-34.11c0-0.179,0.026-0.359,0.06-0.787C11.781,16.63,19.77,26.064,27.959,35.735z"/>
	<path fill-rule="evenodd" clip-rule="evenodd" d="M167.571,6.941c8.202,9.686,16.185,19.116,24.195,28.575
		c0.331-0.39,0.175-0.785,0.177-1.139c0.011-8.248,0.025-16.495-0.013-24.743c-0.005-0.969,0.159-1.472,1.23-1.26
		c0.185,0.037,0.39,0.031,0.577,0.001c0.828-0.129,1.188,0.128,1.11,1.045c-0.085,1.072-0.018,2.157-0.018,3.236
		c0,9.829,0.002,19.657,0.002,29.484c0,0.422,0,0.844,0,1.635c-8.177-9.68-16.151-19.123-24.339-28.815c0,0.67,0,1.066,0,1.461
		c0,8.441-0.013,16.881,0.023,25.323c0.002,0.864-0.2,1.096-1.067,1.065c-1.874-0.065-1.879-0.014-1.879-1.871
		c0-10.831,0-21.661,0-32.492C167.571,8.07,167.571,7.693,167.571,6.941z"/>
	<path fill-rule="evenodd" clip-rule="evenodd" d="M40.657,25.536c0-5.356,0.018-10.714-0.019-16.072
		c-0.005-0.832,0.164-1.118,1.069-1.109c5.011,0.049,10.021,0.04,15.031,0.006c0.762-0.005,0.97,0.2,0.959,0.96
		c-0.03,2.012,0.011,2.012-1.943,2.012c-3.703,0-7.4,0.021-11.103-0.018c-0.719-0.008-0.896,0.178-0.885,0.89
		c0.043,3.005,0.043,6.013,0,9.02c-0.011,0.729,0.207,0.895,0.907,0.889c4.008-0.032,8.019,0.01,12.026-0.037
		c0.833-0.009,1.013,0.238,0.997,1.025c-0.046,1.908-0.005,1.909-1.936,1.909c-3.662,0-7.326,0.027-10.985-0.021
		c-0.817-0.01-1.018,0.211-1.013,1.017c0.044,4.317,0.038,8.635,0.005,12.952c-0.008,0.714,0.175,0.896,0.888,0.89
		c4.008-0.037,8.016,0.005,12.025-0.038c0.815-0.008,1.031,0.218,1.016,1.023c-0.041,1.953,0,1.954-2,1.954
		c-4.667,0-9.328-0.028-13.993,0.025c-0.895,0.009-1.074-0.238-1.068-1.087C40.678,36.33,40.657,30.934,40.657,25.536z"/>
	<path fill-rule="evenodd" clip-rule="evenodd" d="M79.848,27.143c0,4.854-0.016,9.708,0.016,14.561
		c0.005,0.782-0.066,1.15-1.025,1.113c-2.085-0.08-2.088-0.014-2.088-2.104c0-9.438-0.01-18.875,0.021-28.313
		c0-0.83-0.146-1.117-1.049-1.091c-2.5,0.072-5.008-0.004-7.51,0.042c-0.741,0.014-0.97-0.168-0.954-0.937
		c0.036-2.035-0.005-2.036,2.057-2.036c6.279,0,12.559,0.023,18.836-0.021c0.957-0.008,1.339,0.236,1.197,1.2
		c-0.051,0.339-0.043,0.696-0.002,1.038c0.082,0.631-0.2,0.759-0.779,0.752c-2.541-0.028-5.085,0.037-7.626-0.039
		c-0.954-0.028-1.118,0.291-1.113,1.159C79.868,17.359,79.848,22.251,79.848,27.143z"/>
	<path fill-rule="evenodd" clip-rule="evenodd" d="M107.118,26.407c0.574-0.04,0.948-0.06,1.323-0.093
		c3.759-0.341,6.528-2.501,7.282-6.008c1.125-5.224-0.618-10.518-7.206-11.565c-2.915-0.463-5.838-0.278-8.759-0.382
		c-0.964-0.035-1.21,0.244-1.205,1.204c0.036,10.403,0.021,20.805,0.021,31.208c0,2.024,0.005,1.964,2.057,2.045
		c0.964,0.038,1.098-0.308,1.092-1.153c-0.038-4.662-0.021-9.325-0.021-13.986c0-1.314,0.333-1.566,1.605-1.299
		c0.495,0.104,0.646,0.523,0.882,0.846c3.639,4.921,7.262,9.853,10.898,14.776c0.235,0.318,0.351,0.793,0.895,0.79
		c1.092-0.009,2.185-0.002,3.472-0.002C115.293,37.257,111.271,31.918,107.118,26.407z M102.254,23.837
		c-0.621,0.013-0.552-0.346-0.552-0.736c0.005-1.888,0-3.777,0-5.664c0-1.85-0.002-3.699,0.005-5.549
		c0.003-0.35-0.153-0.794,0.506-0.782c2.27,0.04,4.546-0.106,6.767,0.557c2.079,0.622,3.189,2.074,3.523,4.133
		c0.235,1.486,0.246,2.995-0.185,4.464c-0.58,1.976-2.082,2.873-3.959,3.259C106.344,23.935,104.292,23.799,102.254,23.837z"/>
</g>
</svg>
