<?xml version="1.0" encoding="utf-8"?>
<!-- Generator: Adobe Illustrator 16.0.0, SVG Export Plug-In . SVG Version: 6.00 Build 0)  -->
<!DOCTYPE svg PUBLIC "-//W3C//DTD SVG 1.1//EN" "http://www.w3.org/Graphics/SVG/1.1/DTD/svg11.dtd">
<svg version="1.1" id="Layer_1" xmlns="http://www.w3.org/2000/svg" xmlns:xlink="http://www.w3.org/1999/xlink" x="0px" y="0px"
	 width="175.7px" height="50px" viewBox="0 0 175.7 50" enable-background="new 0 0 175.7 50" xml:space="preserve">
<g transform="translate(-77 -105.12415)">
	<path fill="#F6BD3A" d="M94.982,130.876l5.48-3.172l5.404,3.172l-5.404,3.12l-5.48-3.045V130.876z"/>
	<path fill="#F6BD3A" d="M78.531,121.475l21.932-12.457l16.322,9.278l-5.425,9.407l-10.896-6.228l-16.446,9.337L78.531,121.475z"/>
	<path fill="#EB8C23" d="M94.982,143.333v-6.211l5.406-3.126l5.479-3.12v6.246l-5.404,3.104v6.213l-5.48,3.185V143.333z
		 M94.982,130.876l-5.481-3.105l-5.484,3.041v-6.221l16.446-9.345v12.458L94.982,130.876z M111.285,124.589v-3.114l5.5-3.179
		l0.055,6.227l-5.48,3.18L111.285,124.589z"/>
	<path fill="#E35A2B" d="M89.501,146.325V127.77l5.407-3.04l0.074,6.145l5.48,3.063v6.288l-5.48-2.918v12.316L89.501,146.325z
		 M81.234,129.193l-2.703-1.62v-6.097l5.486,3.114v6.223L81.234,129.193z M100.463,121.475v-6.229l10.822,6.229l0.074,6.228
		L100.463,121.475z"/>
</g>
<path fill="#EF6639" d="M50.899,19.855v17.754h-3.124V19.855h-6.074v-3.066h15.271v3.066H50.899z"/>
<path fill="#EF6639" d="M67.313,26.317c0.272,0.94,0.28,2.217,0.252,2.344l-10.086,3.008c0.085,0.75,0.053,0.446,0.297,0.969
	c0.244,0.546,0.533,1.01,0.894,1.343c0.358,0.333,0.76,0.592,1.193,0.778c0.432,0.168,0.903,0.253,1.365,0.251
	c0.651,0,1.262-0.102,1.795-0.34c0.561-0.219,1.082-0.511,1.593-0.899l1.825,1.932c-0.691,0.661-1.468,1.165-2.331,1.525
	c-0.837,0.381-1.86,0.534-3.066,0.534c-0.902,0-1.777-0.153-2.598-0.534c-0.821-0.36-1.546-0.892-2.153-1.557
	c-0.625-0.718-1.107-1.553-1.457-2.561c-0.369-1.008-0.542-2.161-0.542-3.455c0-1.351,0.159-2.528,0.504-3.538
	c0.345-1.008,0.806-1.837,1.396-2.537c0.604-0.681,1.327-1.206,2.158-1.552c0.843-0.365,1.785-0.546,2.792-0.546
	c1.106,0,2.066,0.216,2.896,0.628c0.831,0.422,1.515,0.983,2.049,1.703C66.649,24.533,67.045,25.342,67.313,26.317z M64.384,27.002
	c-0.03-0.512-0.408-1.159-0.72-1.577c-0.264-0.37-0.673-0.691-1.103-0.853c-0.461-0.179-1.078-0.258-1.633-0.229
	c-1.024,0.04-2.158,0.381-2.734,1.18c-0.574,0.801-0.738,2.116-0.715,3.543L64.384,27.002z M78.646,37.458v-8.852
	c0-1.604-0.289-2.705-0.856-3.338c-0.562-0.633-1.35-0.952-2.368-0.952c-1.028,0-1.814,0.358-2.369,1.026
	c-0.566,0.717-0.832,1.683-0.832,2.95v9.166h-3.068V21.814h3.068v1.497c0.383-0.577,0.946-1.022,1.652-1.339
	c0.706-0.317,1.461-0.489,2.268-0.489c1.833,0,3.216,0.589,4.152,1.77c0.941,1.162,1.418,2.908,1.418,5.239v8.967H78.646z
	 M94.306,33.341c0,0.864-0.16,1.586-0.481,2.194c-0.332,0.563-0.766,1.052-1.303,1.418c-0.546,0.346-1.159,0.605-1.863,0.777
	c-0.706,0.136-1.435,0.231-2.21,0.231c-1.077,0-2.151-0.214-3.202-0.589c-1.071-0.374-1.994-0.836-2.798-1.422l1.406-2.301
	c0.737,0.512,1.494,0.893,2.284,1.148c0.785,0.256,1.547,0.386,2.268,0.386c1.906,0,2.863-0.576,2.863-1.727
	c0-0.578-0.318-1.086-0.957-1.438c-0.647-0.347-1.535-0.75-2.682-1.182c-0.835-0.316-1.538-0.641-2.114-0.971
	c-0.586-0.308-1.075-0.693-1.435-1.071c-0.361-0.374-0.626-0.771-0.798-1.259c-0.146-0.448-0.231-1-0.231-1.607
	c0-0.716,0.13-1.322,0.389-1.842c0.251-0.537,0.627-1.001,1.108-1.339c0.461-0.372,1.034-0.636,1.685-0.818
	c0.662-0.173,1.38-0.266,2.157-0.266c0.98,0,1.937,0.164,2.872,0.48c0.908,0.316,1.735,0.734,2.426,1.246l-1.339,2.34
	c-0.633-0.435-1.281-0.774-1.942-1.005c-0.661-0.206-1.367-0.311-2.116-0.311c-0.749,0-1.302,0.13-1.626,0.403
	c-0.345,0.266-0.508,0.608-0.508,1.033c0,0.18,0.034,0.384,0.119,0.52c0.074,0.186,0.218,0.376,0.447,0.526
	c0.203,0.2,0.511,0.362,0.872,0.566c0.36,0.178,0.855,0.41,1.44,0.641c0.882,0.318,1.646,0.669,2.301,0.946
	c0.641,0.329,1.208,0.661,1.655,1.049c0.447,0.389,0.774,0.866,0.987,1.377C94.206,31.985,94.306,32.62,94.306,33.341L94.306,33.341
	z M108.572,29.729c0,1.295-0.173,2.453-0.543,3.475c-0.349,1.022-0.84,1.873-1.479,2.604c-0.64,0.679-1.387,1.225-2.238,1.585
	c-0.848,0.36-1.79,0.568-2.804,0.568c-0.979,0-1.9-0.221-2.736-0.607c-0.833-0.381-1.555-0.905-2.173-1.65
	c-0.607-0.694-1.103-1.543-1.436-2.562c-0.357-0.98-0.525-2.076-0.525-3.327c0-1.278,0.173-2.417,0.531-3.425
	c0.361-1.007,0.845-1.85,1.472-2.556c0.639-0.705,1.361-1.251,2.211-1.611c0.849-0.367,1.752-0.56,2.756-0.56
	c0.98,0,1.912,0.192,2.768,0.576c0.832,0.383,1.598,0.948,2.219,1.632c0.619,0.7,1.106,1.547,1.455,2.541
	C108.401,27.405,108.572,28.536,108.572,29.729L108.572,29.729z M105.466,29.814c0-1.597-0.339-2.871-1.044-3.833
	c-0.706-0.911-1.691-1.401-2.929-1.401c-1.18,0-2.1,0.491-2.758,1.401c-0.675,0.962-1.007,2.194-1.007,3.748
	c0,1.745,0.368,3.03,1.083,3.937c0.708,0.906,1.66,1.385,2.814,1.385c0.577,0,1.104-0.142,1.593-0.429
	c0.463-0.287,0.878-0.655,1.219-1.104c0.322-0.5,0.583-1.022,0.77-1.659C105.392,31.218,105.466,30.548,105.466,29.814z
	 M118.465,25.226c-0.347-0.144-0.689-0.291-1.048-0.398c-0.357-0.108-0.796-0.151-1.315-0.151c-0.979,0-1.728,0.332-2.265,1.021
	c-0.531,0.665-0.802,1.684-0.802,2.981v8.932h-3.066V21.986h3.066v1.496c0.354-0.518,0.856-0.943,1.476-1.302
	c0.619-0.333,1.318-0.517,2.094-0.517c0.634,0,1.159,0.064,1.575,0.17c0.409,0.102,0.772,0.277,1.064,0.482L118.465,25.226z"/>
<path fill="#A6A7A9" d="M123.585,19.855v5.453h6.005v3.065h-6.005v9.235h-3.096V16.788h13.428v3.067H123.585z M134.424,37.61V17.524
	l3.066-1.611V37.61H134.424L134.424,37.61z M153.123,29.729c0,1.295-0.146,2.453-0.521,3.475c-0.368,1.022-0.861,1.873-1.493,2.604
	c-0.633,0.679-1.368,1.226-2.21,1.585c-0.887,0.36-1.79,0.568-2.814,0.568c-1.006,0-1.92-0.221-2.735-0.607
	c-0.846-0.381-1.567-0.905-2.175-1.65c-0.605-0.694-1.101-1.543-1.459-2.562c-0.333-0.98-0.523-2.076-0.523-3.327
	c0-1.278,0.201-2.417,0.546-3.425c0.347-1.007,0.848-1.85,1.491-2.556c0.629-0.705,1.351-1.251,2.172-1.611
	c0.876-0.367,1.786-0.56,2.782-0.56c0.981,0,1.916,0.192,2.752,0.576c0.855,0.383,1.621,0.948,2.236,1.632
	c0.619,0.7,1.094,1.547,1.431,2.541C152.982,27.405,153.123,28.536,153.123,29.729L153.123,29.729z M150.045,29.814
	c0-1.597-0.367-2.871-1.047-3.833c-0.731-0.911-1.689-1.401-2.93-1.401c-1.181,0-2.106,0.491-2.782,1.401
	c-0.657,0.962-0.988,2.194-0.988,3.748c0,1.745,0.348,3.03,1.093,3.937c0.693,0.906,1.655,1.385,2.82,1.385
	c0.561,0,1.096-0.142,1.559-0.429c0.485-0.287,0.876-0.655,1.249-1.104c0.318-0.5,0.577-1.022,0.771-1.659
	C149.942,31.218,150.045,30.548,150.045,29.814z M168.263,37.61h-2.62l-2.114-7.881c-0.178-0.595-0.313-1.195-0.442-1.835
	c-0.156-0.632-0.265-1.129-0.375-1.504c-0.103,0.507-0.211,1.011-0.327,1.513c-0.152,0.633-0.314,1.266-0.446,1.869l-2.093,7.839
	h-2.642l-4.267-15.624h3.024l1.865,7.585c0.146,0.624,0.285,1.265,0.419,1.902c0.145,0.641,0.247,1.152,0.361,1.534l0.387-1.534
	c0.132-0.638,0.29-1.279,0.463-1.902l2.095-7.585h2.44l2.141,7.627c0.152,0.609,0.284,1.223,0.441,1.859
	c0.158,0.642,0.28,1.153,0.366,1.535c0.112-0.382,0.236-0.9,0.367-1.547c0.124-0.625,0.254-1.266,0.41-1.891l1.87-7.585h3.022
	L168.263,37.61z"/>
</svg>
