<?xml version="1.0" encoding="utf-8"?>
<!-- Generator: Adobe Illustrator 16.0.0, SVG Export Plug-In . SVG Version: 6.00 Build 0)  -->
<!DOCTYPE svg PUBLIC "-//W3C//DTD SVG 1.1//EN" "http://www.w3.org/Graphics/SVG/1.1/DTD/svg11.dtd">
<svg version="1.1" id="Layer_1" xmlns="http://www.w3.org/2000/svg" xmlns:xlink="http://www.w3.org/1999/xlink" x="0px" y="0px"
	 width="130.255px" height="50px" viewBox="0 0 130.255 50" enable-background="new 0 0 130.255 50" xml:space="preserve">
<radialGradient id="SVGID_1_" cx="-79.3389" cy="-32.4268" r="2.3855" gradientTransform="matrix(10.7723 -1.9663 -1.7304 -9.4801 826.1863 -447.6249)" gradientUnits="userSpaceOnUse">
	<stop  offset="0" style="stop-color:#4FFFFF;stop-opacity:0.894"/>
	<stop  offset="1" style="stop-color:#00C4C2;stop-opacity:0.894"/>
</radialGradient>
<path fill="url(#SVGID_1_)" d="M26.161,47.973c-1.623-0.334-3.105-1.504-3.798-3.001c-0.357-0.78-0.404-1.028-0.396-2.22
	c0.01-1.064,0.075-1.484,0.322-2.03c0.647-1.438,1.788-2.464,3.249-2.916l0.786-0.242l0.397-1.393
	c0.678-2.367,1.15-4.402,1.014-5.019c-0.065-0.299-0.414-2.247-0.694-4.072c-0.848-5.513-0.938-5.773-2.335-6.791
	c-1.342-0.976-1.826-1.679-2.469-3.587c-0.206-0.605-0.588-1.053-2.694-3.137c-2.376-2.349-2.343-2.366-2.92-2.63
	c-0.494-0.222-1.841-0.452-2.363-0.537l-0.94-0.154l-0.988,0.983c-0.694,0.696-1.3,1.143-2.06,1.518
	c-1.045,0.517-1.113,0.531-2.32,0.472c-1.074-0.052-1.362-0.122-2.129-0.531c-1.328-0.711-2.347-2.015-2.643-3.387
	C2.985,8.393,3.082,6.976,3.396,6.135c0.422-1.128,1.561-2.329,2.71-2.86c0.771-0.355,1.053-0.409,2.159-0.409
	c1.156,0,1.363,0.043,2.213,0.462c0.613,0.301,1.185,0.729,1.64,1.229c0.742,0.809,1.44,2.044,1.44,2.541
	c0,0.185,0.644,0.946,1.751,2.071c1.637,1.661,1.269,1.616,2.234,1.977c0.571,0.212,2.403,0.926,3.395,1.353l1.896,0.896
	l0.744-1.029c1.041-1.446,2.161-1.734,3.958-1.734c2.486,0.002,3.484,0.638,4.553,2.896c0.596,1.261,0.607,1.276,1.297,1.483
	c1.145,0.343,1.945,0.266,3.813-0.373c1.73-0.591,5.556-2.15,6.72-2.738c0.353-0.179,0.731-0.494,0.844-0.703
	c0.375-0.701,1.78-1.865,2.642-2.188c1.169-0.438,3.024-0.365,4.163,0.166c1.022,0.479,1.929,1.385,2.453,2.453
	c0.378,0.77,0.413,0.963,0.407,2.323c-0.007,1.216-0.063,1.604-0.313,2.159c-0.459,1-1.578,2.11-2.615,2.588
	c-0.772,0.357-1.038,0.406-2.22,0.406c-1.153,0-1.451-0.053-2.133-0.372c-1.412-0.662-2.466-1.861-2.871-3.27
	c-0.197-0.688-0.589-0.937-2.055-1.313c-1.608-0.412-2.732-0.35-5.026,0.641c-3.234,1.396-4.481,2.521-4.994,3.523
	c-0.293,0.581-1.584,1.85-2.201,2.169c-0.228,0.118-0.674,0.284-0.986,0.368l-0.569,0.153l-0.007,3.145
	c-0.007,2.052-0.131,3.911-0.294,5.283c-0.28,2.383-0.254,2.244,0.697,6.167c0.565,2.344,0.584,2.38,1.082,2.698
	c2.77,1.752,3.301,5.572,1.124,8.048C29.958,47.576,27.778,48.304,26.161,47.973z"/>
<path d="M55.939,27.979h-6.527v-3.946l-0.95,0.034v0.613c0,0.406-0.006,0.855-0.02,1.343c-0.009,0.447-0.026,0.896-0.052,1.344
	c-0.02,0.407-0.056,0.612-0.1,0.612h-3.47v0.883h3.607v14.041c0,1.496,0.354,2.54,1.068,3.128c0.716,0.591,1.785,0.883,3.213,0.883
	c0.569,0,1.146-0.028,1.734-0.082c0.591-0.057,1.031-0.119,1.328-0.188v-0.815c-0.273,0.044-0.728,0.089-1.361,0.136
	c-0.633,0.044-1.132,0.066-1.495,0.066c-1.226,0-2.116-0.221-2.67-0.663c-0.555-0.442-0.834-1.377-0.834-2.806v-13.7h6.527V27.979z
	 M65.561,27.639c-1.583,0-2.939,0.255-4.063,0.764c-1.119,0.512-2.031,1.203-2.733,2.073c-0.705,0.872-1.212,1.9-1.531,3.079
	c-0.317,1.18-0.475,2.425-0.475,3.738c0,3.425,0.764,5.895,2.294,7.414c1.528,1.519,3.711,2.278,6.545,2.278
	c2.835,0,4.996-0.839,6.492-2.517c1.498-1.678,2.245-4.07,2.245-7.176c0-2.968-0.652-5.32-1.956-7.055
	C71.077,28.506,68.804,27.639,65.561,27.639z M65.597,46.1c-2.675,0-4.653-0.713-5.935-2.144c-1.279-1.425-1.92-3.648-1.92-6.663
	c0-1.247,0.142-2.401,0.425-3.465c0.284-1.068,0.731-1.991,1.344-2.772c0.613-0.784,1.417-1.395,2.414-1.837
	c0.997-0.443,2.198-0.662,3.604-0.662c2.991,0,5.043,0.789,6.155,2.362c1.109,1.575,1.663,3.7,1.663,6.374
	c0,2.881-0.65,5.065-1.953,6.563C70.09,45.353,68.155,46.1,65.597,46.1z M84.704,27.639c-1.634,0-3.05,0.429-4.25,1.292
	c-1.201,0.86-1.961,1.938-2.278,3.229v-4.18H77.19v18.698h0.951V35.322c0-1.043,0.182-1.978,0.544-2.804
	c0.364-0.83,0.844-1.531,1.444-2.109c0.603-0.578,1.299-1.021,2.093-1.325c0.792-0.309,1.622-0.462,2.481-0.462
	c0.701,0,1.377,0.042,2.025,0.121c0.642,0.079,1.205,0.188,1.682,0.321v-1.053c-0.431-0.112-0.924-0.204-1.48-0.27
	C86.374,27.672,85.634,27.639,84.704,27.639z M96.569,27.639c-2.787,0-4.925,0.867-6.407,2.6c-1.485,1.734-2.228,4.087-2.228,7.055
	c0,3.378,0.746,5.838,2.241,7.379c1.499,1.54,3.616,2.313,6.36,2.313c2.628,0,4.585-0.592,5.864-1.771
	c1.281-1.18,2.034-2.629,2.263-4.353h-0.953c-0.091,0.681-0.289,1.337-0.595,1.973c-0.307,0.637-0.75,1.196-1.328,1.685
	c-0.577,0.486-1.295,0.872-2.156,1.156c-0.862,0.281-1.872,0.424-3.029,0.424c-2.446,0-4.338-0.68-5.676-2.04
	c-1.336-1.36-2.007-3.593-2.007-6.696c0-2.769,0.647-4.916,1.938-6.444c1.294-1.531,3.197-2.297,5.713-2.297
	c2.29,0,4.023,0.502,5.205,1.499c1.176,0.997,1.798,2.31,1.867,3.942h0.986c-0.044-1.882-0.725-3.423-2.038-4.624
	C101.272,28.24,99.268,27.639,96.569,27.639z M122.238,32.703c0-1.653-0.568-2.912-1.715-3.772c-1.146-0.863-2.805-1.292-4.98-1.292
	c-1.702,0-3.179,0.298-4.438,0.9c-1.259,0.601-2.066,1.491-2.431,2.67v-11.63h-0.953v27.099h0.953V33.859
	c0-0.927,0.187-1.729,0.562-2.395c0.376-0.671,0.865-1.213,1.479-1.634c0.611-0.419,1.324-0.731,2.14-0.935
	c0.819-0.204,1.667-0.307,2.552-0.307c2.153,0,3.663,0.409,4.539,1.225c0.871,0.816,1.31,1.939,1.31,3.366V44.81
	c0,0.859,0.005,1.381,0.016,1.563c0.012,0.179,0.028,0.281,0.052,0.306h0.985c-0.022-0.024-0.043-0.131-0.051-0.323
	c-0.01-0.192-0.019-0.729-0.019-1.616V32.703z"/>
</svg>
